<svg id="Layer_1" data-name="Layer 1" xmlns="http://www.w3.org/2000/svg" viewBox="0 0 536.15 306"><defs><style>.cls-1{fill:#fff;}</style></defs><path class="cls-1" d="M91.64,102.44h16.1v57.94H140.8v15.67H91.64Z"/><path class="cls-1" d="M151.23,102.44h15.65v73.61H151.23Z"/><path class="cls-1" d="M239.74,102.44v73.61H225.87L193,132.71v43.34H177.3V102.44h13.87l32.92,43.34V102.44Z"/><path class="cls-1" d="M288.45,102.44h20l-29.24,36.81,29.24,36.8h-20l-19.24-24.22-3.42,4.3v19.92H250.14V102.44h15.65V131Z"/><path class="cls-1" d="M91.64,78.21V54.13H94V78.21Z"/><path class="cls-1" d="M102.26,54.13l15.06,20v-20h2.38V78.21h-2.38L102.26,58.12V78.21H99.87V54.13Z"/><path class="cls-1" d="M145.4,54.13v2.39h-8.75V78.21h-2.39V56.52h-8.75V54.13Z"/><path class="cls-1" d="M151.23,78.21V54.13h16v2.39H153.62V65h13.21v2.39H153.62v8.45h13.61v2.39Z"/><path class="cls-1" d="M173.06,54.13h7.42a8.88,8.88,0,0,1,9.21,8.79,8.77,8.77,0,0,1-7.82,8.69l7.82,6.6h-3.45l-7.71-6.5h-3.08v6.5h-2.39Zm2.39,8.79v6.4h5c3.78,0,6.83-2.62,6.83-6.4s-3.05-6.4-6.83-6.4h-5Z"/><path class="cls-1" d="M197.43,54.13l15,20v-20h2.39V78.21h-2.39l-15-20.09V78.21H195V54.13Z"/><path class="cls-1" d="M235.24,72.55H224.3l-2.06,5.66H219.7l8.77-24.08h2.6l8.77,24.08H237.3Zm-9.85-3-.22.61h9.2l-.22-.61-4.38-12Z"/><path class="cls-1" d="M260.2,54.13v2.39h-8.75V78.21h-2.39V56.52h-8.75V54.13Z"/><path class="cls-1" d="M266,78.21V54.13h2.39V78.21Z"/><path class="cls-1" d="M299.06,66.19a12.64,12.64,0,1,1-12.64-12.63A12.65,12.65,0,0,1,299.06,66.19Zm-22.89,0a10.25,10.25,0,1,0,10.25-10.25A10.24,10.24,0,0,0,276.17,66.19Z"/><path class="cls-1" d="M306.78,54.13l15.05,20v-20h2.39V78.21h-2.39L306.78,58.12V78.21h-2.39V54.13Z"/><path class="cls-1" d="M337.82,54.13h2.6l8.77,24.08h-2.54l-2.06-5.66H333.65l-2.06,5.66h-2.54Zm-3.08,15.43-.22.61h9.2l-.22-.61-4.38-12Z"/><path class="cls-1" d="M354,54.13h2.39V75.82h13.7v2.39H354Z"/><path class="cls-1" d="M459,111.18a82.44,82.44,0,0,0-16.28-12.26h0l.07,0h0l0,0-.38-.2a3,3,0,0,0-.53-.24A82.23,82.23,0,1,0,459,111.18Zm-3.91-.93-.59-.53Zm-3-2.57-.83-.65Zm-2.73-2.09-1.4-1Zm-3.1-2.18-1.36-.88Zm-75.34-7.32a82,82,0,0,1,8.82-3l-.85.35.11,0s2.38-.78,2.58-.79l.95-.3c.5-.12,1-.22,1.5-.33l-.4.11h.05c-.07.06-.08.07-.91.32-.37.12-.75.22-1.12.35h.07a7.93,7.93,0,0,1,.84-.21c-.29.13-.59.21-.88.31l.09,0,.67-.21.2,0,.19,0,.25-.08a1.9,1.9,0,0,0,.37-.17h-.11c.07-.06.07-.06.79-.28l-.2,0,1.23-.41A81.3,81.3,0,0,1,401.68,90a80,80,0,0,1,41,11.22l-.22,0-.26,0,0,.2c-.07,0-.07,0-.82-.25l-.13,0,.36.25.84.58-.05,0-.17-.06-.42-.29s-2.56-1.54-3.33-1.84c-.14-.07-.32-.16-.45-.24a7.73,7.73,0,0,0-.84-.13l-.07.19c0,.18-.08.18-.13.18a3,3,0,0,1-.41.09c0,.13,0,.13,0,.14-.35-.07-.67-.24-1-.34h-.19c-.61-.1-.61-.1-.85-.31a6.93,6.93,0,0,0-1-.37l-.22,0L433.1,99c-.12-.13-.27-.29-.4-.41l-.19,0c-.44,0-.78,0-1.13,0h0a1.67,1.67,0,0,1,.51.45c0,.17-.05.18-.07.18a2.39,2.39,0,0,1-.84-.64l0-.06c-.95-.66-2.07-.36-3.1-.57.12.19.12.19.45.46a1.35,1.35,0,0,1-.44.07l0,.2c.52.34,1.14.52,1.64.91.06.09,0,.09,0,.09a8.13,8.13,0,0,0-1.23-.2c-.07.06,0,.12.07.18l.19.06a1.17,1.17,0,0,1,.57.33c-.15,0-.15,0-1-.31a2.48,2.48,0,0,1-.32-.23,1.88,1.88,0,0,0-.41,0,.79.79,0,0,1-.13.39,10.51,10.51,0,0,1-1.23-.33l-.14.14-.23-.08-.05.2a6.27,6.27,0,0,1,.8.78c-.09.11-.29.12-.49.12-.62-.66-1.55-.75-2.23-1.3l-.07-.07a4.7,4.7,0,0,0-2.32-1.85l-.13,0h0l.12.31c-.83.14-1.34-.62-2.08-.72l-.17.13a1.7,1.7,0,0,0,.42.64,1.26,1.26,0,0,1,.47.44h-.67c-.2.12-.49.31-1.46-.2l-.27.14-.27-.15-.34-.44c-.5-.26-.5-.26-.85-.07H416a3.78,3.78,0,0,0-.67,0l-.16.07-.29-.06c-.32.13-.37.13-.43.13-.29-.1-.47-.35-.72-.51,0,.08-.09.2-.12.28l-.33,0-.17-.22h.3l.14-.27c0-.24,0-.26-.05-.28l-.28-.11-.27.14c0,.08,0,.2,0,.29a1.06,1.06,0,0,1-.75.24l-.07.06.2.23a.45.45,0,0,1,.09.14l-.2.21h-.12a1.08,1.08,0,0,0-.56.14h-.39l-.31.07-.07,0a5.63,5.63,0,0,0,.9-1.11l.25,0,.21-.21c.21-.17.24-.17.28-.18l.29-.06c0-.1,0-.22,0-.31s.22-.21.38-.21l-.17-.26c0-.12,0-.12.05-.13a2,2,0,0,0-.42-.44c-.16-.11-.19-.11-.22-.11-.28-.31-.73-.4-1-.73h-.6a.87.87,0,0,0-.55.09,1.83,1.83,0,0,0-.6-.19,1.2,1.2,0,0,0,.13.31h-.25l-.12-.07.05-.13c0-.08-.06-.19-.1-.28h-.44l-.31,0-.14-.26c.09-.15.06-.22,0-.27h-.86c-.17.07-.38.18-.55.27v.27l-.13.27.19.27h-.86l-.09.24h0c-.07.06-.06.09-.05.13s-.14.1-1.08-.08h-.22l-.3-.06a2.18,2.18,0,0,1-.38.47h-.5c-.27.13-.55.27-.84.39l-.27-.12-2.11,1.11a1.8,1.8,0,0,0,.45.42c0,.11,0,.16,0,.2a3.3,3.3,0,0,0-1.21.29c-.35-.14-.35-.14-.91,0a4.24,4.24,0,0,1-.58,0l-.29.12a1.51,1.51,0,0,1-.7.11l-.27.19.17.57-.05.12c0,.09,0,.21-.05.3l.26.17h.18l.28.1c0,.09,0,.21.07.3s-.05.13-.06.17-.17.13-.23.19a7.71,7.71,0,0,1-.82-.39v-.3a6.28,6.28,0,0,0-.78-.06l-.15-.26a1.06,1.06,0,0,0-1,.27,1,1,0,0,1,.51.25l-.25.18-.24-.18-.28,0a4.62,4.62,0,0,0-.5.37c0,.09,0,.21,0,.3l.23,0h.11c.38.17.38.17.62.65a11.42,11.42,0,0,0-1.43-.5c0-.09-.07-.21-.09-.3.14-.23.18-.32.23-.4.46-.91.46-.91.46-1.09l-.19-.1h0a5,5,0,0,1-.45.83l-.09.16a2.06,2.06,0,0,0-1.33.74l0,.07c.09,1.1.09,1.1-.5,1.56l0,.07a7.91,7.91,0,0,1-.3.9,1.2,1.2,0,0,0,.8.27l.49-.39h.12c1.14,1.33,1,1.49.34,2l.26.27a1,1,0,0,0,.54.22l-.08.19-.29.09a1.39,1.39,0,0,1-.35,0,3.23,3.23,0,0,1-.34-.51c.1-.25.12-.33.16-.41s.06-.2.1-.29l-.2-.23c0-.09,0-.22,0-.31-.59-.23-1.82-.72-3.14,2.28a10.08,10.08,0,0,0-1.21.51.79.79,0,0,0-.16.24c-.33.23-.35.24-.84,0a2.72,2.72,0,0,0-1-.16l-.11-.09c.89-.78,2.25-.55,3.1-1.41.24-.09.54-.2,1.18-1.4a1.45,1.45,0,0,1-.57-.14c0-.1,0-.1.55-1.18l.07-.15a2.33,2.33,0,0,0,.72-1.66,6,6,0,0,1,.51-1,2.42,2.42,0,0,1,.38,0l.48-.81-.55-.2h-.27c-.42,0-.8.17-1.22.19a6.21,6.21,0,0,1-1.9,1.68h-.35l-.28.15-.14.19c0,.18,0,.18,0,.18a.8.8,0,0,1-.52.86,1.26,1.26,0,0,0-.43.43c.38.2.4.35.26.7l.2.29c.16.53.16.53-.44,1h-.18l-.31,0a2.35,2.35,0,0,0-.19-.25c.05-.11.1-.26.15-.36-.58-.27-.58-.27-.69-.5-.41,0-.45-.06-.69-.5a1.54,1.54,0,0,0-.78-.22c0-.09,0-.21-.06-.3l-.67,0c-.09-.18-.22-.42-.32-.6s-.07-.2-.11-.29l-.14,0c-.07,0-.07,0-.73.89l.25.17c.14.94.14.94-.3,1.26a2.26,2.26,0,0,1-.42.06c-.32.14-.52.53-.94.47l.65-.76c0-.16,0-.16-.11-.16a2.23,2.23,0,0,0-.8.47,1.81,1.81,0,0,0-.32,0l-.28,0c-.15,0-.15,0-.49.28h-.31a.56.56,0,0,0-.22,0h-.28a1.66,1.66,0,0,0-.49.42l-.38,0c0-.11,0-.25,0-.36.32-.25.78-.71.78-.71s-.12,0-1.44.51a1.45,1.45,0,0,1-.33,0,.83.83,0,0,0-.76.24l-.17.07h-.27c-1.44.28-2.61,1.19-4,1.68l-.2,0a.65.65,0,0,0,0-.34,1.7,1.7,0,0,1,.55-.76,2.42,2.42,0,0,1,.77-.06c.15-.16.31-.33.48-.48l0-.21a3.72,3.72,0,0,0,.19-.34l-.17-.08H373l0-.17-.19,0h-.5c-.13.1-.25.21-.37.32l.17,0a11.44,11.44,0,0,1-.95,1,5.35,5.35,0,0,0-.75.56l.06.08a1.09,1.09,0,0,1-.06.36,1,1,0,0,1-.13.17c-.4.17-.59.55-.89.81a1.14,1.14,0,0,1-.35-.13.7.7,0,0,1,.17-.22l.07-.17c-1.21-.09-2,1-3.16,1.07h0a4.76,4.76,0,0,0-.51.6c.06.31,0,.35-.3.64-.08.07-.05,0,0,0a1.52,1.52,0,0,1-.54-.08.43.43,0,0,0-.18-.06l-.2-.06a.45.45,0,0,0-.23-.24c0-.18,0-.18.25-.53-.88.36-.91.41-1.09.74l.05.15a1.76,1.76,0,0,0-.24.3l.07.05.2,0,.13.14a.54.54,0,0,1-.3.44,3.05,3.05,0,0,1-.66,0,1.27,1.27,0,0,1-.31.2c0-.18,0-.36,0-.55l-.17-.06c0-.3,0-.3.86-1.13l-.32,0,.57-.54a8.65,8.65,0,0,0,1.07-1l-.14-.12a1.65,1.65,0,0,1,.45-.62l-.12-.13.31-.49a3.14,3.14,0,0,1-.06.58l.13.13H365c0,.11,0,.25,0,.36l.69.05a1.87,1.87,0,0,1,.15.32l.18.06h.32c3.25-1.31,3.38-1.36,3.41-2.36a4.84,4.84,0,0,1-.51-.14c0-.23.2-.45.15-.7l.12-.16-.06-.12,0-.19a1.41,1.41,0,0,0-.57,0h-.05a1.58,1.58,0,0,1,.14-.36c0-.11-.09-.12-.17-.12-.2.15-.2.15-.49.34h-.2c.07-.12.07-.12.6-.47l.09-.07c.05-.16.05-.16.36-.41,0-.08-.06-.08-.13-.09a2.17,2.17,0,0,0-.35.15l0-.18-.16-.08a.37.37,0,0,1,.17-.26,1.69,1.69,0,0,0,.69-.27l.29-.26-.18,0a.52.52,0,0,1,.16-.31l-.12,0-.62.4-.19,0a2.37,2.37,0,0,1,.37-.28,4.9,4.9,0,0,1,.51-.25l.18-.12-.45,0a8.31,8.31,0,0,1-.83.51l-.28.18-.15.12-.07,0a4.75,4.75,0,0,0,.83-.54c0-.08-.05-.08-.09-.09l.53-.33v0l-.07,0c-.5.21-1,.38-1.5.61l-.16,0c.14-.18.14-.18.46-.34.09-.07,0-.08,0-.08a2.43,2.43,0,0,0-1.24.54v.18a4.87,4.87,0,0,1-.47.32h-.12l-.08-.16-.12-.07c-.86.54-.86.54-1.09.67.33-.3.62-.62,1-.91a1.76,1.76,0,0,0-.55.26,10.9,10.9,0,0,1-1.64.93,2.35,2.35,0,0,1,.6-.45,9.14,9.14,0,0,0-1,.48c-.16.11-.27.27-.43.37l-.22.15-.15.09,0-.17.82-.54a2.74,2.74,0,0,0-.72.38,6.56,6.56,0,0,0-1.68.72l-.09,0c-.16.08-.35.2-.5.29h0l-.19.1c-.11.09-.08.09-.05.09a8.35,8.35,0,0,0,1.07-.45l.14,0c.36-.11.36-.11.51-.07l-.36.28c-.57,0-4.6,2.48-5.59,3.22l.09-.08a8.78,8.78,0,0,0-1.56.87l.17,0c-.77.59-1.65,1-2.45,1.55,0-.16,0-.17-.07-.17l-.37.3a1.57,1.57,0,0,1-.62.44h-.07a18.83,18.83,0,0,0-3.67,2.77c-.12.1-.14.1-.15.1A79.64,79.64,0,0,1,370.85,96.09ZM347,111.45c-.2.18-.39.37-.58.56l.06,0a17,17,0,0,1-1.9,2,1.24,1.24,0,0,0,.63.25c.57-.49.57-.49.76-.52.2-.18.33-.31.45-.43,0,.15-.08.31-.71.94a6.76,6.76,0,0,0,1.78.42,11.3,11.3,0,0,0,1.54-1.1l.26-.28.13-.14-.11-.15a3.83,3.83,0,0,1,.75-1.14q.75-.75,1.53-1.47a10.86,10.86,0,0,0,1.08-.78,21.24,21.24,0,0,1,2.87-1.7c.67-.4,1.25-.93,1.88-1.36l1.87-1,.05,0h0l-.39.47a2.33,2.33,0,0,0,.33-.14l0,.18-.27.3-.71.62-.24,0c-1.88,1.65-4.29,2.57-6,4.4l-.19.18a5,5,0,0,1-.57.61l.15.08a4.65,4.65,0,0,1-.28,1l.08.07c.25-.12.48-.26.73-.38l.12.15a.83.83,0,0,0,.67-.28l.18-.09.75.08a2.37,2.37,0,0,1,.36-.17h.11a2.19,2.19,0,0,0-.23.49l.51,0-.12.19a10.19,10.19,0,0,1-2.44,1.12.84.84,0,0,1,0-.35,1.69,1.69,0,0,0-.55,0l-.13-.07a1.18,1.18,0,0,0-.5.24l-.11-.15a2.59,2.59,0,0,0-.9.7l0,0h0l0,0,0,0h-.07s0-.05.05-.16l.16-.19h-.15a.26.26,0,0,0-.11,0l-.09,0-.18.18s0,0,0,.1l0,.06h0c-1,.72-1,.72-1.09.88.18.09.18.09,1.15-.43.05.3.05.3-1.56,2.11a.36.36,0,0,1-.26.09l-.07-.25c.09-.12.2-.29.29-.42s0-.09,0-.09.23-.28.33-.4l-.17,0c-.75.65-3.06,2.64-3.34,3.52l-.2.21-.12-.23c-.25,0-.25,0-1.19,1l-.13,0a3.59,3.59,0,0,1,.24-1c-.5.19-2.1,1.12-2.16,1.16l-.1-.26a4.91,4.91,0,0,1,.5-.67l-.12,0-.2.15a1,1,0,0,1-.32,0c-.22.11-.22.11-.59.57-.11.09-.15.08-.19.07,0-.25,0-.25.36-.72l-.13.1-.11,0c.1-.12.2-.24.29-.37s.22-.28.33-.39a.6.6,0,0,1,.24,0,2.3,2.3,0,0,1,0,.26l.25,0c.4-.45,1.58-1.84,1.59-1.84l-.12,0c-.27.07-.27.07-.81.56h0a2.27,2.27,0,0,1,.66-.75l.36-.41c.14-.74.83-1.05,1.23-1.59a6.52,6.52,0,0,0-1.51,1.16l-.21.26c-.65.7-1.27,1.45-1.89,2.17l-.27.33-.4.47c-.21.29-.39.59-.59.88-.11.14-.21.28-.33.41h-.07l-.24.06h-.08l-.21-.11c-.36.37-.75.7-1.11,1.07h0a79.27,79.27,0,0,0-6.38,10.06A80.83,80.83,0,0,1,344,114.39C344.93,113.38,345.93,112.4,347,111.45Zm-7.48,39.2-.11.09-.07.13a2.36,2.36,0,0,1-.16.47l-.09.13c-.6.79-.6.79-.7.87l-.11.09-.11.13-.05.13,0,.14a7.36,7.36,0,0,1-.78,1.55l-.11.13-.1.1H337c-.13,0-.13,0-.45.1h-.1l-.08,0-.1.06-.1.11-.16,0-.05-.11-.05-.15c-.11-.11-.13-.11-.16-.11a1.67,1.67,0,0,1-.61-.22H335l-.12.09c.31.35.31.35.64.45a.36.36,0,0,1,0,.3l0,.17c0,.12,0,.27.08.39a1.69,1.69,0,0,1-.07.38v.14l-.05.16a2.87,2.87,0,0,0,.1,1.27,25.84,25.84,0,0,0-1.18-3.16s-.1,0-.56.16l-.42.3h-.15a9.7,9.7,0,0,0-2.59-1c-.68-1.93-.68-1.93-1.1-2.29l-.47.18-.42-.22c-.87,3.31-.87,3.31-1.17,3.54l-.28,0a10.75,10.75,0,0,0-.49-1.34,1,1,0,0,1-.86-.55c.24-1.53-.28-1.81-.77-2.08-.43-2.34,2-4.11,1.33-6.49a4.61,4.61,0,0,1-1,.38,81.87,81.87,0,0,0-2.34,8.76,79.49,79.49,0,0,1,7.66-21.15c-.62,1.17-1.21,2.34-1.77,3.53v0l.1,0a6.1,6.1,0,0,0,.73-1l.1,0c.31-.16.32-.17.72-.71.17.94-.58,1.68-.59,2.58a2.43,2.43,0,0,1-.13.64c-.08,1.47-.08,1.47.09,1.68-.44,3.4-.44,3.4-.63,3.84-.48.11-.9.46-1.42.39-.08.08-.17.2-.24.28a7.31,7.31,0,0,1,0,1.24l.19.17.49.08c.11-.33.22-.65.34-1a12.66,12.66,0,0,0,1.81-2.33c.08-.25.11-.34.15-.44a.73.73,0,0,1-.3,0,.46.46,0,0,1,0-.33l.11-.23a.46.46,0,0,1,.41-.09,1.61,1.61,0,0,1,.15.47,9.64,9.64,0,0,0,.53-1.24l-.21-.12c0-.59,0-1.5,0-1.5l-.19-.15c0-.8.2-1.57.24-2.37,0-.14,0-.14,0-.14a6.52,6.52,0,0,1,.38-.79l-.23-.1a2.36,2.36,0,0,1,.25-.63l.19-.23a2.43,2.43,0,0,0,.23-.28c.33-.76.33-.76.5-.9l.1.22a7.69,7.69,0,0,0-.27,3.76c-.11.59.29,1.13.18,1.73-.24,1.26-.94,2.36-1.2,3.61l.25.08a3.67,3.67,0,0,1-.27,1.15l-.25,0a1.84,1.84,0,0,1,.09-.25l-.23.06a2.45,2.45,0,0,0,0,1.34l.29-.33.17-.18c-.14.58-.17,1.19-.34,1.76.14.24.23.25.3.26l.25,0a5,5,0,0,0,.39-.62c.05-.16.08-.25.1-.34a.63.63,0,0,1,.4-.61c0,.07.05.17.08.25s.21.11.25.11c.21-.2.21-.2.51-1l.24,0a.59.59,0,0,0,0-.87,4.12,4.12,0,0,1-.25.74l-.25-.05a7.38,7.38,0,0,1,.23-1.5.8.8,0,0,1-.15-.9c0-.09.06-.17.1-.25l.16-.21.08.11a1,1,0,0,0,.22.42l.2,0h.12c.3-.28.22-.76.57-1l.49.08a.93.93,0,0,1,.15.45l.22.09a2.79,2.79,0,0,1-.14.47l.09.13-.07.46c-.91.44-.24,1.41-.54,2.07a2.08,2.08,0,0,1-.16.48c0,.11-.06.18-.09.25a4.76,4.76,0,0,0,0,.71v.14l.05.07V146l.05.14,0,.11a1.39,1.39,0,0,1-.19.55l-.07.13-.08.16a3.07,3.07,0,0,0-.18.76l0,.14,0,.1a1.82,1.82,0,0,0,.27-.41l.15-.33a4.42,4.42,0,0,0,.14-.52,2.34,2.34,0,0,0,.09-.24c.09-.14.13-.14.17-.14l.05,0,0,.11,0,.13,0,.11c0,.12.08.29.11.41l0,.17v.13l.05.08h.07l.25,0,.06.12.23.06.09-.06.1-.09,0-.13.06-.14c.08-.45.08-.45.25-.68l.08-.13.15-.12H337l.2.19a1.25,1.25,0,0,0,.09.37,2.66,2.66,0,0,0,.16.39v.13l.06.11.05,0,.09.07,1.05.09c0-.14.09-.32.12-.46l.05-.16a2,2,0,0,1,.14-.48h.22l.08,0h.12l.25.12a.65.65,0,0,0,.11.34.94.94,0,0,0,.25.05l.11-.06.07-.12.11-.1.07.05a.56.56,0,0,0,.06.34l0,.12a3.12,3.12,0,0,1-.32.86,2.62,2.62,0,0,0-.44,1.45v.13A.8.8,0,0,1,339.48,150.65Zm-17.34,8c-.09.62-.17,1.24-.25,1.87C322,159.9,322.05,159.28,322.14,158.66Zm.61-3.68c-.13.68-.24,1.37-.36,2.06C322.51,156.35,322.62,155.66,322.75,155Zm-1.06,7.48c-.06.55-.11,1.1-.15,1.66C321.58,163.56,321.63,163,321.69,162.46Zm-.29,4c0,.44,0,.89-.06,1.34C321.35,167.34,321.38,166.89,321.4,166.45ZM348.09,230l1,.9Zm2,1.71c.92.77,1.86,1.52,2.81,2.25C351.94,233.27,351,232.52,350.08,231.75ZM441.3,240c1.19-.67,2.36-1.38,3.51-2.11C443.66,238.65,442.49,239.36,441.3,240Zm-.71.41.31-.18.25-.24a.27.27,0,0,1,.15,0Zm18.78-14.38a81.23,81.23,0,0,1-11.14,9.56,80.9,80.9,0,0,0,6.45-5.12l.15-.51.18-.26c.25-.33.58-.6.82-.94l0,0,.47-.66s.92-1.56.34-2.38l.08-.18a5.89,5.89,0,0,0,.55-1c-.95-.13-.95-.13-.8-.6a2.39,2.39,0,0,1,.13-.21,4.1,4.1,0,0,1,.35-.7h-.18c0-.19.11-.35.13-.54-.34-.23-.46-.32-.41-.94-.83-.78-.83-.78-.35-1.68a1.33,1.33,0,0,1,.06-.18c.1-.43.1-.43.17-.55l.1-.24a8.32,8.32,0,0,0,.46-2.45,5.44,5.44,0,0,1-1-.32,2.6,2.6,0,0,0,.17-.72,2.44,2.44,0,0,0,.1-.24,4.3,4.3,0,0,0,.22-2.75l-.18,0c-.12.24-.24.48-.35.72,0,.08-.07.16-.11.28-.72.68-.72.68-1.52,2.56l-.24.61a3.54,3.54,0,0,1-.58.75c-.26.64-.54,1.27-.81,1.9-.49.83-1,.73-1.66.59-.18-.28-.18-.28-.08-.5-.41-.58-.9-1.11-1.29-1.73-.67-.09-.67-.09-.77-.35a7.7,7.7,0,0,0,.47-1,.61.61,0,0,0,0-.15c-.08-1.21,1.24-1.37,1.66-2.2h-.2c-.53-.15-.53-.15-.76-.2l-.31,0c-.45,0-.86-.22-1.3-.19a11.69,11.69,0,0,0-1.28-.79h-.16l-.25,0a.87.87,0,0,1-.36,0c0,.15-.09.3-.13.48l0,.21a5.61,5.61,0,0,1,.75.31c-.29.6-.95.15-1.36.42s-.85.65-1.33.91-.47.28-.61.48a1,1,0,0,0-.05.23,2.75,2.75,0,0,1-.44,1.14c-.21.31-1.26.36-1.34-.17l-.58,0-.13-.12c0-.13,0-.28,0-.4-.14,0-.27,0-.53,0a17.73,17.73,0,0,0-1.91,1c-.72.36-1.13,1.21-2.07,1.19a4.59,4.59,0,0,0-.1.51c.22.45.22.45.22.52l-.12.42-.92,0c.1-.24.11-.5.21-.73h-.6a34.5,34.5,0,0,0-2.85,3.3c-.11.14-.21.29-.84.53-1.16.44-2.49,0-3.58.75-.53.38-1.24.39-1.76.79-.32.23-.12.74-.52.94-.17.08-.25.12-.85-.17a.76.76,0,0,0,0-.37c-.23.39-.23.39-.52.55l0,.19c0,.07,0,.14,0,.28a1.5,1.5,0,0,1-.12.59,1.2,1.2,0,0,1-.08.27c-.49.41-.78.65,0,2.3-.37.14-.72-.24-1.1,0,0,.13-.07.25-.1.38a8.43,8.43,0,0,1,.61,6.15,5.22,5.22,0,0,1-.32.73,1.91,1.91,0,0,0-1.23.54l0,.17a2.31,2.31,0,0,1,.37,0,.87.87,0,0,1,.12.34,2.07,2.07,0,0,0,2.8,0c.81-.9,1.22-.82,3.21-.47.25.05.44.08,1.19-.6a5.37,5.37,0,0,1,2.14-1.21c.35-.11.44,0,.64.19,1.4,0,2.33-2,4-1,.38.32.38.32.81.33h.38c.39,0,.39,0,.56.05,0,.41-.22.73-.31,1.1a1,1,0,0,1,.39.08s0,0-.61,1.3l.12.14a10.31,10.31,0,0,0,2.6-1.79l.18.07,0,.2c-.39.46-1,.76-1.29,1.3l.18-.05c.28-.25.28-.25.64-.23-.13.16-.26.33-.48.59l-.16.13-.13.17a2.72,2.72,0,0,0-.43.5c.31-.07.5-.43.88-.35-.09.18-.22.33-.32.5l.08.18,0,.16-.13.16-.19.19c-.64.66-.64.66-.38,1.13a2.48,2.48,0,0,1,.57,0c0,.11,0,.25,0,.36a1,1,0,0,0,.47,0,80.53,80.53,0,0,1-87-6.81l-3.26-6.61.46-.13a5.18,5.18,0,0,1,.1-1.46c-2.76-4.11-2.76-4.11-3-6.85a1.8,1.8,0,0,1,.88-.39c.61-.9.61-.9.06-3.12l-.43-1.06a5.78,5.78,0,0,0-.52-.86,24,24,0,0,0-1.38-3.07c-1.23-1.38-1.38-3.29-2.37-4.79,0-.09-.05-.17-.14-.55a7,7,0,0,0-.2-.91l4.09-9.65c3.12-1.25,3.71-6.59,3.79-9.67a2.15,2.15,0,0,0-.33-1.16c-1.42-.3-2.37,1.56-3.89.84l-.43,0c-1.31.13-1.54.15-2.33-.27-.59-1.31-.59-1.31-.61-1.72l-.42-.31c-.48-1.56-.48-1.56-1.2-1.74-4.32-7.35-4.32-7.35-4.07-8.54,0-.19,0-.38,0-1A59.75,59.75,0,0,0,336,159.17a.55.55,0,0,0,.26.11c.4.06.38-.45.57-.66l.1.21c.32,1.45,1.18,2.76,1.1,4.31,0,.17,0,.22,0,.27a2.16,2.16,0,0,0-.06,1.25c.12.35.59.3.72.64l.72,2.4a2.2,2.2,0,0,1,0,1.37c-.33.56-.22.71.59,1.82a3.86,3.86,0,0,1,.87,1.79c.1.39.1.39,1.3,2.42.37.65.19,1.42.45,2.08a2.72,2.72,0,0,0,.23.48.71.71,0,0,1,.1.31c0,.83,0,1.66.08,2.48.3,1.25,1.7,1.67,2.13,1.1.81-1.09.81-1.09.95-1.12l1.23.07h.1a1.75,1.75,0,0,1,.24.23h.15c.08-.17.2-.39.28-.56.66-1.41,2.47-.78,3.33-1.84.2-.32.2-.32,1.15-.24,0-.73,0-1.13.38-1.06.53-.48.55-.5,2.83-.32a3.45,3.45,0,0,1,.32-1.51,6.4,6.4,0,0,1,1.23,0,5.49,5.49,0,0,1,.6-1.36s0,0,.24,0h.27l.23,0c0-.16.1-.38.13-.53.37-1.11.45-1.33.83-1.35h.13c.08.08.07.21.16.29s.16.06.25.08a6.15,6.15,0,0,1,.35-2.36c.05-.11.05-.11.48-.11a1.31,1.31,0,0,0,.48-.17l.07,0a2,2,0,0,0-.18-.83c-.14-.19-.4-.11-.56-.23s-.23-.16-.3-.52a1.48,1.48,0,0,0-.08-.46,1,1,0,0,0-.92-.68s-.54,0-.19-.64c.2-.37.11-.58.08-.63a2.78,2.78,0,0,0-.48-.3l-.46,0c0,.56,0,.66-.11.78l-.2.21h0l-.12.11a7.77,7.77,0,0,0-.1-1c-.18-.07-.18-.07-.32-.35,0-.51.05-1,.1-1.44a1.29,1.29,0,0,0-.38-.51c-.13.28-.13.28-.45.44s-.35.17-.71,2.06a3.35,3.35,0,0,0-.85-.11l-.37,0c-.2-.09-.38-.21-.58-.29a1.25,1.25,0,0,0-.26,0,5.94,5.94,0,0,0-.95.87s-.88-.11-.88-1.28l.27-.16a.85.85,0,0,1,.58-.25h.12a1.19,1.19,0,0,0,1.32.13.45.45,0,0,0-.09-.45,1,1,0,0,0-.33,0l-.33,0h-.37c-.6-.23-1.26-.26-1.86-.48a2.12,2.12,0,0,0-.37,0c0-.47.1-.93.14-1.4,0-.09-.09-.2-.13-.29l-1.37-.77c.09-1.23-.55-2.43-.1-3.67.28-.77,1.29-.36,1.48-.11.58.81.56,1.91,1.28,2.64,1.89,1.9,1.89,1.9,3.46,2.12h.27l.23,0c.29-.16.63,0,.91-.22a1.85,1.85,0,0,1,.3,0c.43,0,.43,0,.83.47l0,0c.35,1.22.35,1.22.68,1.36l1.31.06c.05,0,.05,0,1.3.72.55,0,1,.06,1.38.07l.37.19c.84.07,1.52.09,2.23.11l1.57-.24,1.44.05c.71.55,1.18.92,2.92,3.49h.49a4.4,4.4,0,0,1,1.6.61c-1.2-.07-1.31.08-1.59.46.05.12.11.26.15.38,1,.28,1.16,1.61,2.24,1.75.41.06,1.59-1.21,1.6-1.22,1.24.16,1.36,2.2,1.33,3.41,0,.2,0,.41,0,.62-.37,2.37-.37,2.37,2.78,8.76,0,.46,0,.55,0,.65-.26,2.09,1.47,3.36,2.11,5.08.94.75.94.75,2.08-1.42,1.26-.14,1.35-.8,1.92-5.11,0-.53,0-1.06,0-1.59-.07-1.46-.07-1.46,1.77-2,1-2,3.47-2.7,4.34-4.81l.8-.2c.2-.66.32-.73.83-.82h.19c.65-.15.66-.21.83-1.78a2.3,2.3,0,0,1,1.31-.28l.39.18.45,0a11.75,11.75,0,0,0,1.41-.82,3.21,3.21,0,0,1,1.45-.22c0-.29,0-.58,0-.86a7.48,7.48,0,0,1,.82.18,20.06,20.06,0,0,0,1.47,3.4,5.3,5.3,0,0,1,1.21,1.19c0,.14,0,.24,0,.34a6,6,0,0,0-.06.86,1,1,0,0,1,1.1.31c-.25,3.45-.25,3.45,1,3.46h.38a5,5,0,0,1,1.19-.56c.38-.18.38-.28.38-.37v-.3l.33-.26c1.56.48.8,2.35,1.88,3.12.07.47.07.47-.37,1.18,1,3.89,1,3.89.33,4.24a2.73,2.73,0,0,0-.14,1.28v.27c-.9,3.19,2.7,4.29,3.21,6.82,0,.49,0,1,0,1.45.7,2,3.73,3.16,3.76,3.16l.32,0,.16-.4a2.76,2.76,0,0,0-.58-.65c-.57-.85-.7-3.79-.7-3.82s0-.18,0-.27a3.3,3.3,0,0,1-.05-.54c0-.52,0-.7,0-.89-2.48.18-2.3-2.67-3.92-3.49,0-.12-.05-.29-.07-.41s0-.34,0-.43a1.94,1.94,0,0,0-.74-.56c0-.47,0-.94,0-1.42.47-1,1.8-3.66,1.8-3.66.53.45.62,1.23,1.25,1.6l.36,0a1.33,1.33,0,0,1,.79-.11c1.64,3,1.64,3,2.78,3.3l.24.4a2,2,0,0,0,0,2.2c.6-.8,2.61-3.21,2.62-3.22.49.08,2.89.3,2.94-3.4,0-.54,0-.88,0-1.22.07-.94-.51-1.77-.5-2.7-.72-.26-.72-.26-1.79-1.6-.87-.69-1.16-1.79-1.89-2.57.08-1.25.08-1.25.8-1.69.44-2.22.44-2.22,3.95-2.59a.37.37,0,0,1,.12.33,18.31,18.31,0,0,0-.05,1.86c-1.41,1.75-1.41,1.75-1.24,2.25.89.06,1.61.06,2.31.05.07-.76.39-1.47.39-2.24l-.43-.19a12.93,12.93,0,0,1-.09-1.74h.82c1.18-.8,1.18-.8,1.86-.88h.3c3.72.78,10-6.37,10.67-11a1.79,1.79,0,0,0-.33-.78,4.55,4.55,0,0,1-.82-.15,4.46,4.46,0,0,1,0-.82.41.41,0,0,1,.41-.21c-.22-.66-.5-1.3-.74-2l-.17-.62c0-.7,0-.7-2.11-2.75,0-.27,0-.36,0-.45a1.81,1.81,0,0,1,.45-.65c0-.12,0-.29,0-.41-.06-.39-.08-.57-.1-.74l.66,0a2.27,2.27,0,0,0,.4-.69l.41-.06a1.64,1.64,0,0,1,.56-.13l.41,0,.28-.33c0-.13,0-.29-.06-.42a3.87,3.87,0,0,0-1.24-.11c-.15-.21-.35-.48-.52-.68a5.27,5.27,0,0,0-.95-.05c0,.26,0,.59,0,.84a1.42,1.42,0,0,1-.75.19,11,11,0,0,1-.28-1.46l-1.5,0a.84.84,0,0,1,.13-1.58,4.83,4.83,0,0,1,.85,0c.65-1,1.82-1.46,2.56-2.37h.17l.35.38a11.44,11.44,0,0,0-.86,2.47l.3-.3a5.74,5.74,0,0,1,1.2-.12c.42-.33.64-.88,1.15-1.13h0a6.23,6.23,0,0,1,.73.24H440c.77.2.82.35.93.69s.06.31.07.4a1,1,0,0,1-.24.52c.09.41-.08.83,0,1.24h.46l.21-.13c.82-.88,1.14,1.27,1.78,1.84.13.58.2,1.05.27,1.52-.1.38-.38.68-.41,1.08s.09.57.12.83l1.27,0c.36-.1.55-.43.84-.62a7.71,7.71,0,0,0,1.09-.89c.32,0,.32,0,.49-.24a4.54,4.54,0,0,1-.12-1.37l-.15-.81c-.29,0-2.16-2.11-2.18-2.14-.2-.35-.2-.35-.37-2.41a3.36,3.36,0,0,0,.65-.16l.27,0,.43-.07c-.17-.76-.34-1.5-.52-2.24,0-.54,0-.54.09-.76.82,0,.47-1.1,1-1.42.74-.43.94,1,1.71.63a2.48,2.48,0,0,0,1-1.05c.78,0,.78,0,1.66-2.35.37-1-.26-2.17.72-3v-.19c.83-.24.41-1.15.76-1.65,0-.11-.11-.25-.15-.35l0-.06a3.5,3.5,0,0,0-.24-.71c-.06-.14-.1-.22-.13-.3a1.21,1.21,0,0,0-.12-1l-.22-.49-.12-.17a2.74,2.74,0,0,1-.13-.29,7.23,7.23,0,0,1-.24-1.78l.17,0a1.34,1.34,0,0,0,.42.28s1.38,1,3.37,8.13a.78.78,0,0,0,.36.05l.14-.13a2.72,2.72,0,0,1-.05-.49c0-.12,0-.28,0-.39l.2,0c.26.62.34.81,1.07.83-.3-.78-1.18-1-1.54-1.78s-.45-1.49-.79-2.2c.09-.11.09-.11.09-.53l.19-.07c.27.13.49.34.77.46a.53.53,0,0,0,0-.33c-.79-1.58-2.23-2.71-3-4.29a2,2,0,0,0-.16-.36,2.68,2.68,0,0,0-.61-1h0a7.23,7.23,0,0,1-1.19-1.82h-.33l.84,1.58a.9.9,0,0,0-.36.08.55.55,0,0,0,.08.28l.12.16a2.38,2.38,0,0,1,.14.28,1.42,1.42,0,0,1,.36.54c0,.12-.14.13-.24.13s-.19,0-.7-1.15l-.11-.23c-.7-.62-1.6-.91-2.33-1.47a1.85,1.85,0,0,0-.61-.07c.18.37.37.73.55,1.09-.24,0-.49,0-.74,0,0,0-.52-1-1.17-1.06l.11.16c.1.2.18.34.25.49l.05.19a.64.64,0,0,1-.36,0,.66.66,0,0,1-.18-.25c-.21-.73-.21-.73-.68-1a.92.92,0,0,1-.16.33H444a.79.79,0,0,1-.38-.89c.54-.31.41-1.19,1.15-1.34.1-.44-.43-.84-.07-1.29-.13-.56-.13-.56.19-1l-.06-.19c.21-.11.21-.11,0-1.36l.14-.16s.49-.11.47-.19a3.8,3.8,0,0,1,.08-.82,2.08,2.08,0,0,1,.57.12l.21-.09a.47.47,0,0,1,.16,0l.18.09h.17l.19-.1c.09-.07.11-.08.13-.08.73.32.73.32,1,.11h.15l1.53-.1-.3-.39c-.26-.35-.26-.35-.26-.6a5.41,5.41,0,0,0,.58.32c.85-.51,1.11.87,1.78,1.12l.62,0c.06-.23.06-.23-.08-.61.16,0,.16,0,.74.37l-.06-.2H453a1.67,1.67,0,0,0,.45,0,4.65,4.65,0,0,0-.58-.56l-.2,0a2.42,2.42,0,0,1-.56-.54l-.11-.2.11-.16c-.35-.83-.35-.83-.28-1.09a7,7,0,0,1-.54-1.3l.13-.16.2.05.23.06-.06-.22c0-.07,0-.08,0-.08.35.25.84.29,1.05.72l.16.18c.37.31,1.1.86,1.11.86-.11-.45-.47-1.37-.47-1.37l.18-.07c-.1-.2-.1-.2-1-1.18l.05-.21a.81.81,0,0,1,.4-.13l.28.27.09.34a21.58,21.58,0,0,0,1.64,2.51c.52.63.41,1.42.6,2.14h0l0,0a2,2,0,0,0,.07.23h0v0h0s0,.09.08.2l0,.08a1.75,1.75,0,0,1,.15.55l-.24,0a2.3,2.3,0,0,1-.2.49l-.12,0c0,.08,0,.26.17.43a1.57,1.57,0,0,1,.49.6c.16.29.14.63.3.92a4,4,0,0,0,.36.5l2.7,4.13a.33.33,0,0,1,.06.31l.91.92c.36.58.72,1.18,1.07,1.78l.18.1.05,0v-.13c.15-.08.24-.26.44-.27-.14-.35-.46-.59-.55-1a7.85,7.85,0,0,0-.16-1c-.12-.36-.12-.36-.1-.45l.08,0,.18.1h.12l.11,0c0-.12-.11-.38-.11-.38l-.77-1.14a2.61,2.61,0,0,1-.1-.57,5,5,0,0,1,.75-.11l-.43-.6c-.18-.23-.43-.39-.63-.6,0-.07-.1-.14-.15-.21a1.66,1.66,0,0,0-.16-.21l-.36-.92c.15,0,.15,0,.38.23l.19.13a.54.54,0,0,0,.22,0l-.29-.41c-1.36-1.2-1.36-1.2-1.77-1.81,0-.06,0-.06.06-.18-.19-.22-.34-.39-.46-.39v0l.07.14-.18,0a6.28,6.28,0,0,1-.76-1.09l-.14-.74-.15,0a7.53,7.53,0,0,0-.56-.74l-.1-.11c-.39-.47-.39-.47-.43-.7.18,0,.18,0,.75.4l.07-.2a2.48,2.48,0,0,1-.17-.37c.13.07.13.07.47.38l.15.11c0-.28,0-.28-.34-.79l.15-.14.19.06a3.48,3.48,0,0,0,.36,0,80.16,80.16,0,0,1,1.43,113.12Zm-14.55,11.85c1.15-.73,2.29-1.5,3.4-2.29C447.11,236.41,446,237.18,444.82,237.91Z"/><path class="cls-1" d="M425.12,94.87l0,0,.82.45a3.78,3.78,0,0,1,.56.21,1.54,1.54,0,0,0,.24.09c.1,0,.13,0,.13,0l0-.11a2,2,0,0,1,.48.14.62.62,0,0,0,.17.07l.39.06h.13a1.52,1.52,0,0,0-.23-.18l-.05,0H428l-.41-.22-.22-.1a.64.64,0,0,0-.31,0l-.09.07h-.06l-.12,0h-.09l0,0-.54-.28c-.27,0-.27,0-.28,0v0l.19.1v0C425.8,95.16,425.8,95.16,425.12,94.87Z"/><path class="cls-1" d="M425.87,96.48l-.17-.07h-.07c-.12,0-.21-.07-.32-.08h-.16l.2.15.14.07.13,0,.32.07.09,0v0l0-.05Z"/><path class="cls-1" d="M422.63,95.45c.12.06.25.14.39.2h0c.19.08.4.1.59.18a6.27,6.27,0,0,0,.58.29s0,0,.3,0a3.75,3.75,0,0,1-.53-.39c.38.13.38.13.64.09h.13c0-.08-.12-.08-.15-.14.18,0,.33.16.51.13,0-.15-.16-.17-.22-.27l.07,0h0a1.76,1.76,0,0,0,.45.12h.29a4.91,4.91,0,0,1-.63-.38,2.42,2.42,0,0,0-.31-.25c-.28-.16-.28-.16-1-.22l0,0,0,0c.28.17.54.37.83.54a.48.48,0,0,0-.22,0l-.53-.31a4.17,4.17,0,0,0-.6-.4,1.37,1.37,0,0,0-.43,0v0l.49.28a3,3,0,0,1-.42,0,4.47,4.47,0,0,1-.6-.25l-.18-.1h-.05l-.05,0h-.12v0l-.36,0c.08,0,.08,0,1.26.89Z"/><path class="cls-1" d="M447.44,202.39c.05-.27.11-.54.15-.81l-.64,0c0,.13-.05.26-.07.39l-.07-.26c0,.09,0,.18-.05.27s0,.27,0,.41A3.49,3.49,0,0,1,447.44,202.39Z"/><path class="cls-1" d="M458.37,115.36l-.1-.13-.22-.26-.18-.08h0l-.09.07-.1,0,0,0a.5.5,0,0,0,.15.36l.33.38.11,0,.18-.05s0,0-.06-.29Z"/><path class="cls-1" d="M427.48,97a.53.53,0,0,1-.25,0,1.32,1.32,0,0,1-.26-.12c-.07,0-.1-.07-.14-.07h-.12c-.2,0-.2,0-.2,0s.13.13.17.22h-.11c0,.13.09.19.13.29l0,0,.43,0h.09l.14,0h.19l0,0,.05,0h0a2.53,2.53,0,0,0,.68.19h.13a2.25,2.25,0,0,0-.94-.51Z"/><path class="cls-1" d="M448.29,199h-.37l-.1,0c0,.08,0,.17-.08.25s-.13.21-.19.32l-.12.2c.33.29.33.29.41.32h.38a1.36,1.36,0,0,0,.44-.61.31.31,0,0,0,0-.26l-.25-.22Z"/><path class="cls-1" d="M403.36,91.38h-.11a.83.83,0,0,1,0,.22l.24,0h.06a.1.1,0,0,1,.06.1v0h.12l.06,0,.05,0,0,0v-.13l0-.08-.07,0-.08,0,0,0-.07,0-.06,0h-.06l-.05,0Z"/><polygon class="cls-1" points="403.24 90.71 403.27 90.71 403.38 90.66 403.41 90.59 403.41 90.58 403.39 90.53 403.4 90.47 403.35 90.42 403.28 90.46 403.25 90.45 403.19 90.42 403.15 90.48 403.12 90.6 403.19 90.64 403.24 90.71"/><path class="cls-1" d="M424.51,97a1.48,1.48,0,0,1-.5-.23l-.11-.06-.43-.23h-.1c.25.15.52.28.77.44a2.67,2.67,0,0,1,.32.24h.4a2.26,2.26,0,0,0-.2-.13Z"/><path class="cls-1" d="M408.23,92.9l.15.1.06,0a.37.37,0,0,0,.18,0h.08l.06,0,0-.05,0,0-.12-.06-.06-.08-.17,0h-.08l-.12,0H408l0,.06.06.09Z"/><path class="cls-1" d="M406.28,93.14l.07-.12,0-.12.14,0,.09,0H407l.05-.08s0,0,.11,0a.74.74,0,0,0,.21,0h0l.06-.06c.08,0,.15,0,.22,0s.13,0,0-.19l-.08-.1-.06-.1h-.28c-.14-.26-.14-.26-.17-.27a.93.93,0,0,0-.42-.08v.15h0l-.09-.06.05-.13,0-.08c-.14,0-.15,0-.19-.08l0,0h0v0l-.12,0h0a.43.43,0,0,0,0,.17l0,.19h-.07l0,.07a1.19,1.19,0,0,0,.08.2c.05.13,0,.16-.09.19l-.06,0c-.11.07,0,.32,0,.33S406.19,93.3,406.28,93.14Z"/><path class="cls-1" d="M403.65,91.13h0l.06.09s0,0,.15.12h.19l.06-.08s0,0,.09,0,.15,0,.16,0l0,0h.28a.65.65,0,0,1,0-.24l0,0h0l0-.07,0,0h0l-.06,0h-.29c0-.2-.07-.2-.18-.24l-.11.06-.06.07c-.06,0-.06,0-.14.05l-.19,0c0,.16,0,.18-.06.24l-.07,0h-.05l-.12,0,0,.14Z"/><path class="cls-1" d="M421.59,95.22l.32.13H422l-.08-.11-.07,0a4,4,0,0,1-.38-.25l0,0h-.07l-.17,0h0A2.23,2.23,0,0,0,421.59,95.22Z"/><path class="cls-1" d="M405,93.81h0l-.14,0h0l0,0s0,.1-.18.13v.13l.1,0,.19,0,0,0h.08l0,0,0-.15Z"/><path class="cls-1" d="M404.48,91.4c-.09,0-.19,0-.28,0l-.08.12-.13,0-.08.14v.06l.18.09V92l0,.15h.57c.14,0,.14,0,.26.2a1.56,1.56,0,0,1,.49,0h.1c.32,0,.29-.13.28-.16l-.06-.16a.24.24,0,0,1-.16,0,.4.4,0,0,1,0-.23l0-.15s-.17-.28-.26-.3-.24,0-.22.07l0,.09h-.16l0-.13,0-.08h-.25C404.57,91.25,404.57,91.38,404.48,91.4Z"/><path class="cls-1" d="M447.51,208.25a4,4,0,0,0-.88.52s-.17.46-.22.68a1,1,0,0,0,0,.24l.65,0a1.31,1.31,0,0,0,.49-.5,2.14,2.14,0,0,0,.07-.67C447.61,208.4,447.53,208.34,447.51,208.25Z"/><path class="cls-1" d="M454,201.61c0-.11,0-.22.07-.33l-.46,0c.15-.53.15-.56.14-.67v-.17c0-.08.05-.15.07-.23h-.41a1.82,1.82,0,0,0-.32,0,1.84,1.84,0,0,0,0,.44l0,.2c0,.26-.14.5-.2.75Z"/><path class="cls-1" d="M438.38,210l.37,0c.63,0,.63,0,.87-.18l0,0-.08-.24h-.17a.22.22,0,0,0-.17.1.32.32,0,0,1-.19.11h-.51a4.83,4.83,0,0,0-.66.14h-.22c-.3,0-.55.18-.84.2a.51.51,0,0,1-.43-.13c-.23-.34-1.07-.32-1.48-.13-.16.08-.28.23-.46.25h-.27c.17.13.22.39.46.45a5.76,5.76,0,0,0,1.32,0h.2l1.06,0c.24-.05.48-.07.71-.14l.12-.06C438.18,210.21,438.24,210.07,438.38,210Z"/><path class="cls-1" d="M438.37,169.94a2.93,2.93,0,0,1,.07-1.15c0-.14.19-.17.26-.28.13-.34.13-.34.11-.47a.23.23,0,0,1,0-.11c.06-.15.22-.23.28-.39a1.19,1.19,0,0,1,.34-.53,3.09,3.09,0,0,0,.32-.51,2.81,2.81,0,0,1,0-.29,2.64,2.64,0,0,1,0-.28c0-.09-.13-.13-.14-.23a1.92,1.92,0,0,1,.05-.41c-.46,0-.46,0-.68,0s-.17.24-.28.33-.27.22-.39.34l0,0a4.48,4.48,0,0,0-.31.62l-.25.07a4.3,4.3,0,0,0-.15.84c0,.81.06,1.62.08,2.43Z"/><path class="cls-1" d="M444.44,190.77l.2-.29-.19-.54c.06-.68.11-1.37.16-2.06,0-.15-.12-.87-.54-.91-.12,0-.17.07-.27.29s-.09.45-.27.62c0,0-.36.3-.57.2s-.46.2-.64.47-.12.43-.75.44c-.2,0,0-.29-.11-.42a2.07,2.07,0,0,0-.74.16l0,.27a.62.62,0,0,1-.57.16c-.57,0-.79.68-.79.69,0,.46-.07.92-.1,1.39l.23.21c0-.11.17-.17.2-.28l0-.28c0-.09,0-.19,0-.29,0-.25,0-.25,0-.26l.59-.32c.17-.05.17-.05,1.22,0,0,.18,0,.36-.05.54-.08.66-.08.66.05.84l.13.07c.12.05.26,0,.38.06a1.53,1.53,0,0,1,.33.29c.13.11.13.11.34.07s.08,0,.25.29a1.31,1.31,0,0,0,0,.28c.07,0,.14-.05.22,0s.14.14.22.19l.24-.06a5.06,5.06,0,0,0,.06-.53c0-.32-.07-.33-.16-.35s-.05,0-.15-.89c.09-.05.11-.18.22-.2s.06,0,.26.08a.82.82,0,0,0,.46.1Z"/><path class="cls-1" d="M434.62,188.26s0-.82,1.51-.83c.06-1.53.8-1.84.95-1.89s.17-.06.2-.21l.22-2v-.1a1.43,1.43,0,0,1-.26.46c-.36.42-.36.42-.34.61s0,.05-.35.72c-.05.1-.19.12-.26.21s-.15.43-.3.6-.17.07-.22.14a.26.26,0,0,0,0,.22s0,.37-.05.46a2.8,2.8,0,0,1-.25.35c-.09.12-.12.29-.24.39s-.37.08-.54.18a.63.63,0,0,1-.72.56c-.23,0-.38.34-.57.86l.12,0C433.76,189.1,434.66,188.9,434.62,188.26Z"/><path class="cls-1" d="M436.91,212.84a3,3,0,0,1,0,.36l.67,0c0-.14.07-.27.09-.41l-.05-.24A2,2,0,0,0,436.91,212.84Z"/><path class="cls-1" d="M430.8,204.32c0-.13,0-.13.56-.47a.7.7,0,0,0,.19-.92,1,1,0,0,1-.17-.35l.7-.9c.14-.17.19-.24.43-1h.74c.05-.46.11-.91.16-1.37,2.16,0,1.47-.8,1.39-.89a5,5,0,0,1-1,0c-.08-.27-.08-.27.06-.66,0-.14,0-.27.05-.45.07-.4-.21-.74-.2-1.13l.12-1.39a3.46,3.46,0,0,0,.94,0c0-.75,0-.89,1.23-1.32l.07,0c-.09-.5-.09-.5-.19-.58s-1-.07-1-.07c-.18,0-.7-.36-.7-.37,0-.17.11-.33.05-.51l-.4-.69-.55-.19c-.28.75-1.09.93-1.57,1.46s-.57,1.23-1.11,1.67c-.37.3-.91.09-1.26.39s-.67.56-.72.92l-.09.14c-.4.24-.66.66-1.1.87a1.82,1.82,0,0,1-1,.14,12.39,12.39,0,0,1-.16,1.38c-.49-.08-.94.19-1.42.1-.22,0-.26-.12-.48-.46l-.25-.13h-.25a2.13,2.13,0,0,0-.27.07,2.84,2.84,0,0,1-.08.8c-.08.21-.33.28-.41.49l-.15,1.13c-.11.89,1.33.87,1.08,1.83l0,.13a2.46,2.46,0,0,0,0,.26c-.17.64-.26,1,0,1.26.47.44,1.07.06,1.57.27.07.43.27.58.44.63.69.21,1.22-.44,1.88-.33l.09,0c.07,0,.07,0,.36.43s.45-.23.71-.1a1.48,1.48,0,0,1,.38.42c.07.11.07.11.26.16a1.28,1.28,0,0,0,.51,0h.34l.13-.07C430.74,204.69,430.75,204.52,430.8,204.32Z"/><path class="cls-1" d="M449.29,202.11h.22a1.17,1.17,0,0,0,.48-.21c.2,0,.38.13.58.11a3.25,3.25,0,0,0,.54,0c.1,0,.14-.13.22-.18l0,0c0-.08.05-.17,0-.25s-.17,0-.19-.13a.83.83,0,0,1,.06-.46c.2-.59.16-.65.11-.78-.13-.29-.82-.28-.83-.28-.36,0-.61.37-1,.41a2.75,2.75,0,0,0-.7.05,1.61,1.61,0,0,0-.49.33l.08-.14c-.09,0-.19,0-.28,0a2.21,2.21,0,0,0-.49.27,2.26,2.26,0,0,1,0,.26.8.8,0,0,1,.49.23c.08.06.14.11.43.06s.4.25.4.25c0,.53,0,.52.23.5Zm-1.07-1.24,0,0,0-.06Z"/><path class="cls-1" d="M463.26,120.54c.22.29.44.59.67.88l.25,0s-.21-.24-.32-.34-.31-.43-.49-.61a5.06,5.06,0,0,0-.72-.62c.13.17.26.35.4.52S463.19,120.47,463.26,120.54Z"/><path class="cls-1" d="M464.62,121.21l-.14-.18-.08-.11a2.38,2.38,0,0,0-.27-.27l-.07,0h-.12s0,0,.43.62A1.9,1.9,0,0,0,464.62,121.21Z"/><path class="cls-1" d="M461.65,134.63a1.37,1.37,0,0,1,0-.28,1.68,1.68,0,0,0,0-.47l0,0h-.11s-.05,0-.08.11,0,.07-.11.18,0,0-.07.23,0,.05-.13.2a1.16,1.16,0,0,0,.33.16C461.64,134.74,461.65,134.67,461.65,134.63Z"/><path class="cls-1" d="M462.05,127.81c0,.1.11.17.14.27s0,.23,0,.35,0,.16.06.24h.11l0,0a.61.61,0,0,0,0-.16c0-.07,0-.15-.05-.23s0-.15,0-.18l0-.06a.59.59,0,0,0-.09-.2,1.55,1.55,0,0,0-.05-.23l0-.06c0-.07-.08-.13-.11-.2l-.17,0a1.3,1.3,0,0,0,.09.31C462,127.65,462,127.73,462.05,127.81Z"/><path class="cls-1" d="M448.45,154.38v-.1a1,1,0,0,1-.1.86c-.18.58-.49,1.54.47,1.63l.43,0c-.17-1.27-.17-1.27.44-1.63.31-.18.29-.41.29-.41-.06-.55-.43-1-.51-1.55a1.22,1.22,0,0,1-.73,0,1.72,1.72,0,0,1-.05-.26c.44-.32.44-.32.78-.3a.9.9,0,0,0,.65-.21c.11.58.2,1.16.29,1.74h.43a2.28,2.28,0,0,0,.62-.39c.19-.2.23-.49.38-.71s.56,0,.77-.24c.08-.09,0-.39,0-.49a.44.44,0,0,1,.22-.1c.66.75.66.75.72.75.5,0,.43-.73.94-.72.14-.28.14-.28-.19-1.07l.19-.11,2.36-.07c.25-.51,1.21-.43,1.13-1.21-.09-.43-.19-.85-.29-1.28a5.13,5.13,0,0,1,.16-1.09l-.07-.26c-.05-.18-.12-.35-.18-.53s-.07-.28-.1-.42c-.15-.46-.15-.46.24-.73a8.51,8.51,0,0,0-.34-2.83s-1.17-2.25-2.19-2.45l-.12-.38.94-.05.19-.19h.15c.57.29.57.29.71.27.21.27.21.27,1.06.33a2.75,2.75,0,0,0-.33-1l1,0a.88.88,0,0,1,.45-.35c0-.42-.34-.79-.27-1.24a1.72,1.72,0,0,1,.64-.23c.13-.24.14-.26.56-.41l.2,0a1,1,0,0,1,.24-.1c.14-1.22.14-1.22.07-1.42a.85.85,0,0,0-.12-.23h-.11c-.37.23.08.65-.21.9-.47.41-.47.41-.82.42a.41.41,0,0,0-.23.06l-.08.08h-.5c-.15.31-.34.74-.6.67a5.64,5.64,0,0,1-.69-.29c-.45-.25-.76-.67-1.19-.94s-.87-.24-1.25-.48c-.05.78.56,1.34.67,2.06-.43.51.19,1.19-.29,1.69-.2-.09-.27-.32-.46-.41,0,.16,0,.33,0,.5h-.11c-.51.13-.15,1.59.86,2.07l.17,0,.16-.19.18.63-.73,0c0,.17.06.34.1.51l.11.37c.17.33.06.7.19,1s.15.56.24.92c.27.85.19.86-.26.93-.33.47-.26,1.08-.56,1.55a9.07,9.07,0,0,1-.24-1l-.13.15c.06.59.06.59.09.76l-.77,0,.24,1.05c-.31,0-.64.07-.67-.83l-.23,0c-.11.22-.11.22,0,.47v0c.07.66.07.66-.53.67.11.52.22,1,.32,1.58l-.45,0a.92.92,0,0,1-.24-.13c-.24-.6-.6-.43-.6-.43-.17.95-1.3.44-1.95.67-1.09.38-1.09.38-.85,1.66a8.76,8.76,0,0,0-1,.08,2.56,2.56,0,0,0,.14.79,1.21,1.21,0,0,0-.78.25C446.49,154.72,447.63,154.52,448.45,154.38Zm2.54-2.71c.53-.2,1.11,0,1.64-.22l.12-.06a2,2,0,0,0-.06.23c-.23.12-.47,0-.7.07s-.39.43-.66.54l-.13,0-1,0A3,3,0,0,1,451,151.67Z"/><path class="cls-1" d="M442.05,201.48l-.7,0-.07.06c0,.06,0,.08-.13.08H441l0,0c-.09.06-.07.17-.13.24s.1.16.21.19h.46a3.75,3.75,0,0,0,.47,0,1.55,1.55,0,0,0,.4-.06h-.06a3.49,3.49,0,0,1,.09-.55C442.28,201.51,442.17,201.48,442.05,201.48Z"/><path class="cls-1" d="M443.55,203.5a.42.42,0,0,0-.15-.06l-.34-.07a3.18,3.18,0,0,0-.33-.09h0c-.05.15-.11.35-.15.51s0,.18.12.25c.3.18.3.18.43.18h.45c0-.15.06-.3.08-.45l0-.1C443.6,203.58,443.6,203.52,443.55,203.5Z"/><path class="cls-1" d="M442.23,209.7a1.69,1.69,0,0,0-.59,0c-.3,0-.37.11-.44.2s-.09.11-.47.22c-.16.05-.28.2-.45.24a3.84,3.84,0,0,0-.46.11c-.07,0-.07.07-.09.14s0,.17-.27.18c-.52,0-.52,0-.56,0s-.17.22-.29.29-.37.29-.37.29l-.07.14,0,.12v0l-.05-.11c-.1.37-.1.37,0,.44s.59.29.77.16a.94.94,0,0,0,.21-.25c.09-.13.89-.81.9-.82.27-.22.66-.06.94-.27s.26-.3.45-.39a1.21,1.21,0,0,1,.58-.11c.52,0,.54,0,.61-.16l0-.08,0,0-.2-.11C442.32,209.87,442.34,209.74,442.23,209.7Z"/><path class="cls-1" d="M434.72,211.45l-.11,0-.33-.09c-.09-.05-.07-.16-.13-.23s-.24-.11-.36-.12-.06,0-.52.26c.1.28.1.28.17.32s.1.22.15.32,0,.2.13.25.36.08,1.38,0h.1c0-.08,0-.19,0-.28-.39-.07-.45-.13-.49-.17Z"/><path class="cls-1" d="M444.52,200.9c.06,0,.06,0,.47-.14a5.53,5.53,0,0,0,.22-1.37,2,2,0,0,1,1.15,0c0-.13.09-.26.12-.39a.48.48,0,0,0-.05-.38c-.05-.09-.16-.1-.24-.16v0l0-.17c0-.07,0-.07.1-.46-.23-.06-.23-.06-.7,0,0-.13,0-.26.05-.38.06-.31.16-.36.23-.39l.13-.1c0-.07,0-.07.08-.6a6.49,6.49,0,0,1-.87.92c-.12.12-.12.12-.3.1s-.1,0-.16.28l0,.12c0,.22.06.44,0,.66l-.16.73a.35.35,0,0,1-.12.2,2.3,2.3,0,0,0-.33.58l-.12.87a1.7,1.7,0,0,0,.22,0C444.38,200.78,444.41,200.91,444.52,200.9Z"/><path class="cls-1" d="M437.58,179.32c.29.26.47.39.47.39l.12.11h.13c-.35.74-.07,1,.07,1.11s.23.08.36.1l.54,0c0-.15,0-.3,0-.45s-.05-.23-.06-.35,0-.44,0-.66.38-.57.44-.63l.13-.08.07-.14.12-.18a3.2,3.2,0,0,0,.39-1.06v-.19l0-.17V177a.93.93,0,0,0,0-.32l0-.15-.07-.14,0-.15-.07-.18-.06-.18,0-.15-.1-.14-.12-.13-.15-.14-.16-.08h-.22a.19.19,0,0,1-.16,0l-.12-.06-.07-.18c-.32-.18-.32-.18-.39-.18H438v.15l0,.15v.28l0,.18v.15a.83.83,0,0,1,.09.43v.15l-.12.18a1.08,1.08,0,0,0-.06.79c.08.37.06.38-.08.48s-.47.27-.67.45l-.1.18v.36A1.14,1.14,0,0,0,437.58,179.32Z"/><path class="cls-1" d="M433.57,210.21a2.84,2.84,0,0,1,.06-.31c-.48,0-.48,0-.59-.07l-.06,0h-.05c-.07,0-.13,0-.2,0s-.25-.11-.38-.11a1.14,1.14,0,0,0-.34,0l-.18.08a3.11,3.11,0,0,0-.28.23h0c-.21.06-.41-.08-.62,0a.51.51,0,0,0-.22.11c-.15.19.14.49.33.49s.85,0,.85,0a.68.68,0,0,0,.43-.27.2.2,0,0,1,.2-.14c.16,0,.3.07.46.07a2.31,2.31,0,0,0,.69-.07Z"/><path class="cls-1" d="M444.5,213.05h0l.2-.07Z"/><path class="cls-1" d="M444.52,213.05a.53.53,0,0,0-.27.21s-.22.4,0,.49a.28.28,0,0,0,.26-.05c.08-.06.11-.08.56-.14h.2l.44-.08c0-.16.09-.32.14-.48l-.39-.1A2.51,2.51,0,0,1,444.52,213.05Z"/><path class="cls-1" d="M441.73,187.38c0-.28,0-.55,0-.82a.55.55,0,0,0-.29-.5c-.31-.08-.31-.08-.42-.2s.08-.52-.15-.72a1.56,1.56,0,0,0-.54-.28c-.09,0-.11,0-.14-.06s-.08-.24-.14-.36a.63.63,0,0,1-.05-.46c0-.33,0-.37-.35-.83-.2-.24-.55-.27-.76-.52a2.12,2.12,0,0,0-.35-.44l0,0-.44-.07c-.16,1.16.19,1.15,1,1.12,0,.83,0,.83.05,1.06a1.81,1.81,0,0,1,.08,1,3.52,3.52,0,0,0-.12.5.91.91,0,0,0,1.21.61c-.05.09-.14.14-.19.24l-.15.56c0,.08,0,.3.07.37a1.05,1.05,0,0,0,.92.21c.13-.06-.08-.24.05-.31S441.2,187.38,441.73,187.38Z"/><path class="cls-1" d="M446.86,204.1a2,2,0,0,0,.45,0h.05a4.37,4.37,0,0,1,.13-.77c-.26,0-.53,0-.79-.07s-.29-.07-.43-.08H446a7.18,7.18,0,0,0-1.1-.23c-.18,0-.18,0-.49.6,0-.09,0-.18.05-.26a1.51,1.51,0,0,0-.1.3c0,.08.06.13.06.21l.67,0c.16,0,.32-.07.48-.08s.14.06.21.06H446a4.34,4.34,0,0,1,.62.17C446.75,203.94,446.76,204.07,446.86,204.1Z"/><path class="cls-1" d="M440.73,182.48c.27.16.27.16.38.12h.11a2.62,2.62,0,0,1,0,.28c.13.14.33.18.44.33s0,.65.19.93c.05.09.16.08.24.14s.29.34.46.48a.31.31,0,0,0,.14.06c.08,0,.09,0,.22.24s.09.15.08.71l1,0a7.45,7.45,0,0,1,.07-.8v-.08c-.1-.58-.14-.82-.41-1s-.23-.15-.23-.24a.67.67,0,0,0-.08-.28c-.3-.68-.77-.73-.77-.73s-.1,0-.12,0a1.44,1.44,0,0,1-.13-.32c0-.1.07-.18.08-.27,0-.27,0-.55,0-.82a1.83,1.83,0,0,1-.25.06c-.09,0-.15-.06-.24-.06h-.46c-.32,0-.35.17-.36.23s0,.18-.32.29c0,0-.7.14-.87.16Z"/><path class="cls-1" d="M440.85,209.17c0,.07,0,.13.07.2h.18c.07,0,.07,0,.2-.14s.27.05.41.06h.11c.11,0,.15-.12.24-.17l0,0-.12-.24-1.06,0C440.9,209,440.85,209.07,440.85,209.17Z"/><path class="cls-1" d="M438.15,201.93c.27,0,.45-.29.74-.31a7.48,7.48,0,0,0,.82,0h0a.37.37,0,0,0,.21-.27c.12-.5-.84-1.08-.85-1.08h-.4a.79.79,0,0,0-.47.31,1.85,1.85,0,0,1-.89.65,2.93,2.93,0,0,1-.75-.14c-.21-.07-.36-.22-.56-.29h-.25a1.6,1.6,0,0,0-.68,1c0,.15,0,.17-.05.22l-.05.05a.93.93,0,0,0-.11.49c0,.17,0,.17-.29.37h-.25l-.06.05c-.53.54-.56,1.25.78,1.21a.92.92,0,0,0,0,.16c.07.49-.38.78-.45,1.21s0,.29,0,.32l.05.09s0,0,.16.68a3.78,3.78,0,0,0,.54-.38l.08-.22c.08-.27.07-.57.15-.85,0-.11.13-.17.16-.28.09-.57.17-1.13.25-1.7l.72,0c0,.19-.05.38-.08.57l-.15.26a2.28,2.28,0,0,0,0,.26,4.46,4.46,0,0,0,1.14.23l-.09.51c-.05.19-.21.32-.26.5a2.93,2.93,0,0,1-.05.29c0,.14-.1.57.44.59l.74,0a2,2,0,0,0,.11-.26l.06-.36a1.68,1.68,0,0,0,0-.64c0-.11-.17-.09-.24-.16s-.1-.15-.16-.22c-.29-.34-.29-.34-.08-.94,0-.09,0-.18,0-.26.06-.28.06-.28-.33-.72-.12-.15-.33-.11-.47-.22l0-.26c0-.14.09-.31.12-.45A4.7,4.7,0,0,0,438.15,201.93Z"/><path class="cls-1" d="M441.59,198.18l-4,.09c-.33.06-.41.47-.75.52l-.88.14-.22.12a1.1,1.1,0,0,0-.33,1c.33-.17.69-.3,1-.47.13-.07.15-.24.28-.31.45-.26.46-.26.58-.24a.24.24,0,0,0,.16,0c.1-.06.15-.17.23-.25l.47.12,1.49,0a1.18,1.18,0,0,1,.58.29c.07.09.11.15.21.15a1.16,1.16,0,0,0,.59-.2c.13-.07.15-.32.36-.29h.12a1.41,1.41,0,0,0,.76-.92l0-.09h-.23C441.76,197.83,441.76,197.83,441.59,198.18Z"/><path class="cls-1" d="M343.65,116.83c-.24.29-.35.66-.57,1s-.43.47-.65.72l-.08.1c-.11.13-.21.28-.31.42l.44.07c.36-.42.81-.94,1-.89h.07c0,.06,0,.06,0,.16h0c.5-.31.5-.31.53-.3l.52-.62.29.05a3.12,3.12,0,0,0,.42-.51l-.14,0a.41.41,0,0,1-.18,0c0-.09.12-.14.18-.22l0,0,.06-.06c.15-.13.3-.28.46-.4.64-.49,1-1.28,1.79-1.6-.71-.11-1.34-.22-1.86-.33-.2.22-.33.49-.53.71l-.09.1c-.51.49-.51.49-.58.61s-.22.45-.38.66l-.18.2Z"/><path class="cls-1" d="M407.17,196.75a.54.54,0,0,0-.06-.26l-.26-.19c0,.11-.08.2-.06.32s.08.11.11.17l0,.17,0,.17v.21c0,.08.19.1.31.1h.24a2.68,2.68,0,0,0,.07-.27,1.82,1.82,0,0,1-.41-.27Z"/><path class="cls-1" d="M414.38,206.28c0,.09-.15.14-.19.24s0,.17,0,.26l.25.19c0-.08,0-.16,0-.24l-.06-.19A2.26,2.26,0,0,1,414.38,206.28Z"/><path class="cls-1" d="M412,203.13a.93.93,0,0,0-.47-.08c-.44.06-.62-.67-.62-.68-.08-.35.12-.72,0-1.07-.06-.14-.06-.14-.54-.32a1.17,1.17,0,0,0-.14,1,11.1,11.1,0,0,0,1.28,1.73c.27.07.27.07.43.32.1.53.21.52.49.51,0-.34,0-.68.05-1l-.23-.12C412.09,203.32,412.07,203.18,412,203.13Z"/><path class="cls-1" d="M409.08,198.85c-.14-.13-.21-.31-.34-.44l-.06-.06a1.13,1.13,0,0,0-.33-.13l0,0c-.17.28-.23.4.26.82l.27.23c.08.07.18.09.25.17a.91.91,0,0,1,.2.35l0,.11.07-.13v-.25c0-.33-.06-.48-.12-.54S409.15,198.91,409.08,198.85Z"/><path class="cls-1" d="M408.14,198.49a2.44,2.44,0,0,0,.06.26v-.14Z"/><path class="cls-1" d="M419,97.35l0,0v.11c.09.08.23.17.33.25l.19.12h0c-.16-.17-.32-.35-.49-.52Z"/><path class="cls-1" d="M344.42,114.11a6.7,6.7,0,0,0-.49.51c.07,0,.07,0,.07,0h.06l-.08.11a3.71,3.71,0,0,0-.23.32l.17-.09,0,.18.1,0a1,1,0,0,0,.26-.19l.11-.09h0l.11,0,0,0a4.65,4.65,0,0,0,.66-.53h0a6.69,6.69,0,0,1-.72-.19Z"/><path class="cls-1" d="M463.3,210.49c-.12-.2.09-.48-.16-.65L462,209.6l.54-1.56a3.79,3.79,0,0,0-.78,0,11.45,11.45,0,0,1,.44-1.19,2.93,2.93,0,0,1,.64,0,1.82,1.82,0,0,0,.09-.43c-.18-.12-.17-.35-.28-.51l-.42,0a2.78,2.78,0,0,1-.5,0,6.6,6.6,0,0,1-.11-1.09l0-.09-.13-.08c-.11-.09-.11-.09-.51-.94-.22-.45-.74-.1-1-.38-.07-.07-.08-.09-.07-.3l-.05-.06a.8.8,0,0,1-.5-.06c-.33-.09-.44-.47-.76-.58s-.64.12-1,0l-.09,0h-.31c-.79,0-1-.91-1.68-1.08-.1,0-.1,0-.67.45-.26.2-.62,0-.89.2-.44.28-.45.36-.48.58-.1.87-.67.82-1.54.75-.43,0-.07-.68-.5-.77s-.58.22-.89.26l-1.35.05c0,.17-.08.34-.11.51.41.2.41.2.21,1.07a.72.72,0,0,0,.34-.07l0-.17a2.74,2.74,0,0,0,.46-.29c.45.23,1.06.09,1.42.56s.42.53.5.51a1.87,1.87,0,0,1,2,.75c.51,1,.56,1.43.51,1.57-.23.64-.27.78-.56,1a4.47,4.47,0,0,0-1.09.66c-.11.12-.12.14-.13.5,0,0,0,.75,1.09-.08.17-.31.32-.63.73-.48a.53.53,0,0,1,.31.31c.14.38.21.41.46.53a6,6,0,0,1,.67.45,2.08,2.08,0,0,0,1.36.1l.41-.29c.18-.23.18-.53.34-.76.75,0,.89-.87,1.54-1h.09a3,3,0,0,1,.9.66,13.38,13.38,0,0,1,.42,2.24l.08,0a5.92,5.92,0,0,0,1.12-.2c.19,0,.19,0,.42.55.14.35.38.28.6.21l.31-.8C463.67,210.6,463.6,210.56,463.3,210.49Z"/><path class="cls-1" d="M451,205.9l-.36.27-.19.15-.17.11,0,0c-.06.07-.05.17-.07.25a1.92,1.92,0,0,1-.12.25,2.33,2.33,0,0,1-.14.33c0,.06-.11.1-.14.18v.09l.09,0,.35,0h.07s.09,0,.23-.16a.85.85,0,0,0,.13-.25c.08-.17.21-.3.3-.46l.06-.11a1.55,1.55,0,0,0,.14-.35l0-.13C451.15,206,451,206,451,205.9Z"/><path class="cls-1" d="M470.76,209.5h-.08l0,0c-.07-.07-.09-.08-.16-.07a1.29,1.29,0,0,0-.21.07c0,.15-.11.28-.14.43a1.8,1.8,0,0,0,0,.21c0,.14.11.12.22.12h.12c.07,0,.11-.12.17-.18l0,0,0-.09,0-.15,0-.12,0-.13Z"/><path class="cls-1" d="M418.6,206.45a2.13,2.13,0,0,1,0-.25c.09-.72.09-.72.23-1.52a2.28,2.28,0,0,1,0-.26c.18-.66.95-.25,1.37-.52l0-.19s-.14-.64-.54-.63-.42-.11-.09-.68l0-.14s-1.24-1.08-1.61.31a2.84,2.84,0,0,1-.71-.06c0-.39.34-.85-.11-1.16h-.26c-.61,0-.61,0-.66,0s-.79-.56-.78-.8a8.45,8.45,0,0,0,0-1.33c-.92.06-.92.06-1.4-.42s-.11-.94-.36-1.36a1,1,0,0,1-.27.14h-.26a1.17,1.17,0,0,1-1.11-.54l-.05-.26c-.53-.18-.73-.71-1.13-1-.72-.6-.72-.6-.81-.63s-.34,0-.47-.14,0-.39-.08-.57c-.14,0-.48-.06-.82-1-.43,0-.79.37-1.25.27s-.81-.69-1.36-.81c-.56.19-.24.59.45,1.47.42.53,1.12.74,1.53,1.3a2.26,2.26,0,0,1,.54,1c.15.48.19.57.65.54a.64.64,0,0,1,.63.31c.27.4.27.4.29,1.27,0,.09,0,.18,0,.27.31.82,1.27,1,1.7,1.69a6,6,0,0,1,.79,1.16,6.93,6.93,0,0,0,.42,1.43c.45.77,1.26,1.2,1.78,1.89.63.86.63.86.86,1,.77.59.78.61.82.89l1.59-.17A3.07,3.07,0,0,0,418.6,206.45Z"/><path class="cls-1" d="M468.7,205.69c-.06,0,0-.1,0-.22a3.59,3.59,0,0,0,.12-.35l-.15,0-.17.07a1.87,1.87,0,0,1-.08.53c0,.12-.11.21-.13.33l.05.31c0,.07.11.11.13.18s0,.32,0,.48l.09.13.08,0,.14-.12h0c0-.07,0-.14,0-.22a2.44,2.44,0,0,0,0-.27,2.5,2.5,0,0,1,.09-.25v-.07l0-.29S468.8,205.74,468.7,205.69Z"/><path class="cls-1" d="M466.92,203.79l-.35.23c-.16.15-.1.37-.18.54l-.31.5,0,0-.9,0h-.35c-.19,0-.37,0-.57,0l-.15,0c-.06.15-.17.28-.22.44s-.07.34-.12.5l-.06.13c.21,0,.42-.06.63-.06s.3.11.46.12l.69-.07a.85.85,0,0,0,.29-.26c.06-.08.1-.12.13-.12.22,0,.22,0,.33-.08l0,0,.12-.12a5.42,5.42,0,0,0,.34-.49c.1-.18.15-.39.24-.58s.17-.21.23-.33a1.38,1.38,0,0,0,.1-.22c0-.1,0-.19,0-.3C467.18,203.74,467,203.73,466.92,203.79Z"/><path class="cls-1" d="M429.3,209.8c-.25,0-.37-.22-.47-.46l-1.87,0c.1-.78,1-.56,1.44-.85a3.56,3.56,0,0,0-.8-.17l-1.2,0c-.68-.07-1.3-.38-2-.47l-6.33.25a3,3,0,0,0,0,.31h.74a2,2,0,0,0,0,.55,4.9,4.9,0,0,1,.69,0c.33.16.41.59.8.66s.91-.26,1.4-.25a4.49,4.49,0,0,1,1.1-.06c.22.06.15.37.39.42.5.11,1-.27,1.5.11a1.64,1.64,0,0,0,1.36.52c.07-.38.08-.43.23-.49s.41.18.65.17h.3c.85-.34,1.27.66,2,.65h.3l.19-.11h0C429.59,209.94,429.54,209.76,429.3,209.8Z"/><path class="cls-1" d="M403.69,175.1V175h0Z"/><path class="cls-1" d="M375.73,102.62h0c.12,0,.26,0,.39-.09l.28-.17.13-.13c-.21-.07-.21-.07.08-.38l-.7,0a2,2,0,0,0-.23.18l-.1.14c-.24.24-.48.47-.72.72h.35C375.46,102.88,375.56,102.7,375.73,102.62Z"/><path class="cls-1" d="M393.85,90.84h.2a4.1,4.1,0,0,0,.6-.14l.34-.12v0h-.05l.53-.18.05,0a.54.54,0,0,0-.29,0l-.55.1s0,0-.35,0h0l.06-.06-.58.16a.31.31,0,0,0,.12-.08v0h-.07c-.34.11-.51.16-.62.21v0a3.1,3.1,0,0,0,.42-.08c.27,0,.29,0,.33,0v0l.08,0c-.46.16-.47.16-.57.15l-.39.13a1.22,1.22,0,0,0-.28.13c-.11.08-.11.08-.11.1a4,4,0,0,0,1-.3Z"/><path class="cls-1" d="M391.3,97.87l0,.09a1.22,1.22,0,0,0,.27,0l.12,0c.06,0,.06,0,.14,0h.25a.38.38,0,0,0,.24-.17l0-.18a.44.44,0,0,0-.22-.11C392.07,97.43,392,97.47,391.3,97.87Z"/><path class="cls-1" d="M397.41,90.58v0a1.36,1.36,0,0,0-.31.23c-.07.09.31,0,.41-.06a2.62,2.62,0,0,1,.62-.19h0c.12-.07.12-.07.13-.09h-.05v0h-.09l-.16,0-.11,0a.38.38,0,0,0-.19,0l-.19.06Z"/><path class="cls-1" d="M397.48,90.42c-.21,0-.4.12-.6.16l.05,0a1.66,1.66,0,0,1-.31.12,2.55,2.55,0,0,0-.41.12l-.06,0-.1.09h.06a.78.78,0,0,1,.22,0h.08a.44.44,0,0,0,.26,0l.12-.07a3.65,3.65,0,0,1,.71-.36Z"/><path class="cls-1" d="M395.46,90.71l.06,0-.34.06Z"/><path class="cls-1" d="M395.42,91.12l-.08,0h-.07l0,0a1.4,1.4,0,0,0-.23.11h.1l.11,0,.2,0,.09,0,.15-.09-.21,0Z"/><path class="cls-1" d="M394.89,91l-.35.15h.22c.15,0,.3-.12.45-.16-.26.11-.35.15-.37.19l.18,0a3.49,3.49,0,0,0,.44-.2h.21l.13-.07.14-.06h-.33C395.36,90.86,395.13,91,394.89,91Z"/><path class="cls-1" d="M380.63,99.43l.07,0a.73.73,0,0,0-.19.28c.15-.08.27-.18.41-.25a.47.47,0,0,1,0,.51l-.51.3-.08.07-.08.14.61,0a4.28,4.28,0,0,0,.82.21h.18c.15,0,.15,0,.22,0l.28-.31.09-.14,0-.06a1.44,1.44,0,0,0,.22-.27l-.07,0,0-.08a2.44,2.44,0,0,0,.2-.57l.11-.14-.05-.06c.15-.13.27-.28.41-.42l.09-.09a12.45,12.45,0,0,0,1.39-.87l.16-.13.13,0,.14,0,.13-.12a12.86,12.86,0,0,0,2.35-1.26,3,3,0,0,0,.85-.18l.19-.13a2.18,2.18,0,0,0,1.15-.53l1.37-.34c.16,0,.33,0,.57,0,0,0,.8-.26,1-.3h.44a3.4,3.4,0,0,0,1-.49,1,1,0,0,0,.17-.34l-.14,0-.05,0H394c-2.72.7-2.72.7-2.93.65h-.13a2.67,2.67,0,0,0-1.19.42h-.59a13.43,13.43,0,0,0-2.92,1.31l-.15.11-.28.23c-1.19.18-1.23.19-1.53.55.45-.08.45-.08.48-.07l-.26.17-.11.11,0,.06a1.36,1.36,0,0,1-.33.07h0a.47.47,0,0,0-.31,0,4.2,4.2,0,0,1-.54.39l-1.86.84a7.2,7.2,0,0,0-1.21.92l.24,0A1.15,1.15,0,0,1,380.63,99.43Z"/><path class="cls-1" d="M395.78,90.65l0,.06h.1c.63-.26.64-.27.69-.23l0,0c-.18.1-.18.1-.19.12s.15,0,.33-.07l.16-.07.17-.07a1.48,1.48,0,0,0-.21,0v0l.67-.2.14,0h0l-.17,0h0a2.15,2.15,0,0,0-.42.1c-.38.14-.38.14-.45.13h-.1l-.63.19-.22.09.24,0Z"/><path class="cls-1" d="M394.94,90.77h0l-.32.09-.22.06-.07,0,.08,0c.11,0,.22-.08.33-.12s.21,0,.31,0l.16,0a.65.65,0,0,1-.24,0Z"/><path class="cls-1" d="M388.23,190.24a2.44,2.44,0,0,0,0-.27v-.28l0-.08-.55-.79c-.08-.09-.2-.12-.26-.21l-.25-.32c-.14-.14-.17-.17-.23-.84l-.4-.08s-.05.06-.15.1-.12.06-.17.39c0,.11.07.19.07.29s-.06.17-.06.27v0c0,.09.13.13.13.24s-.06.19-.05.29.09.21.07.33,0,0-.15.19a2.86,2.86,0,0,0,.17,2,3.36,3.36,0,0,0,.87.51c.13,0,.13,0,1.15,0,0-.89,0-.89,0-1.12A4.39,4.39,0,0,0,388.23,190.24Z"/><path class="cls-1" d="M358.54,224a9,9,0,0,1-.75-1.57l.13-.14s.67-.54.67-.64c0-.59-.65-.79-.8-1.29-.11-.33,0-.67-.05-1-.05-.15-.12-.3-.18-.45s-.19-.3-.27-.46a2.14,2.14,0,0,0-.1-.22v-.12c.28-.16.28-.16.18-.66a2,2,0,0,0-.08-.22c-1.23-2.94-1.23-2.94-2.59-3.45.32.9.32.9.32,1a2.36,2.36,0,0,1-.57.9c-.39.37.26.73.14,1.12-.26,0-.26,0-.29,0,0,.31.33.61,0,.92-1.68-.05-1.68-.05-1.93.23,0,.08-.07.09.27.77.07.12.07.12.09.85a6.36,6.36,0,0,0,1,1.81c.09,0,.34.24.67,1l-.05.1-.3-.07a11.91,11.91,0,0,0,.55,2.11,2.25,2.25,0,0,0,.12.21c.22.39.58.68.82,1.06a4.49,4.49,0,0,0,.24.42,14,14,0,0,1,.77,1.18,5.15,5.15,0,0,1,1,.05c.19.06.21.3.38.37s1.53.27,1.63-.1c.29-1-.63-1.56-.93-2.36C358.45,224.94,358.75,224.44,358.54,224Z"/><path class="cls-1" d="M318.91,171.93h0Z"/><polygon class="cls-1" points="459.01 100.72 461.8 100.72 461.8 62.89 381.05 62.89 381.05 65.67 459.01 65.67 459.01 100.72"/><polygon class="cls-1" points="318.16 210.87 54.94 210.87 54.94 65.67 80.87 65.67 80.87 62.89 52.16 62.89 52.16 213.65 318.16 213.65 318.16 210.87"/></svg>