<svg id="Background_Complete" data-name="Background Complete" xmlns="http://www.w3.org/2000/svg" viewBox="0 0 575.97 89.62"><defs><style>.cls-1{fill:#ebebeb;}.cls-2{fill:#fff;}</style></defs><polygon class="cls-1" points="0 21.92 18.51 21.92 18.51 43.78 23.27 43.78 23.27 31.4 46.81 31.4 46.81 51 49.92 51 49.92 5.01 70.38 5.01 70.38 17.64 80.86 17.64 80.86 33.34 84.04 33.34 84.04 23.46 102.63 23.46 102.63 52.94 108.07 52.94 108.07 28.98 125.08 28.98 125.08 10.78 136.64 10.78 136.64 0.42 150.02 0.42 150.02 46.38 154.51 46.38 154.51 27.2 176.55 27.2 176.55 54.66 179.6 54.66 179.6 32.25 201.94 32.25 201.94 12.05 213.34 12.05 213.34 89.62 0 89.62 0 21.92"/><rect class="cls-2" x="2.27" y="24.67" width="3.13" height="4.18"/><rect class="cls-2" x="7.7" y="24.67" width="3.13" height="4.18"/><rect class="cls-2" x="13.12" y="24.67" width="3.13" height="4.18"/><rect class="cls-2" x="2.27" y="30.96" width="3.13" height="4.18"/><rect class="cls-2" x="7.7" y="30.96" width="3.13" height="4.18"/><rect class="cls-2" x="13.12" y="30.96" width="3.13" height="4.18"/><rect class="cls-2" x="2.27" y="37.24" width="3.13" height="4.18"/><rect class="cls-2" x="7.7" y="37.24" width="3.13" height="4.18"/><rect class="cls-2" x="13.12" y="37.24" width="3.13" height="4.18"/><rect class="cls-2" x="2.27" y="43.53" width="3.13" height="4.18"/><rect class="cls-2" x="7.7" y="43.53" width="3.13" height="4.18"/><rect class="cls-2" x="13.12" y="43.53" width="3.13" height="4.18"/><rect class="cls-2" x="110.68" y="31.96" width="3.13" height="3.49"/><rect class="cls-2" x="116.11" y="31.96" width="3.13" height="3.49"/><rect class="cls-2" x="121.54" y="31.96" width="3.13" height="3.49"/><rect class="cls-2" x="110.68" y="37.21" width="3.13" height="3.49"/><rect class="cls-2" x="116.11" y="37.21" width="3.13" height="3.49"/><rect class="cls-2" x="121.54" y="37.21" width="3.13" height="3.49"/><rect class="cls-2" x="110.68" y="42.45" width="3.13" height="3.49"/><rect class="cls-2" x="116.11" y="42.45" width="3.13" height="3.49"/><rect class="cls-2" x="121.54" y="42.45" width="3.13" height="3.49"/><rect class="cls-2" x="110.68" y="47.7" width="3.13" height="3.49"/><rect class="cls-2" x="116.11" y="47.7" width="3.13" height="3.49"/><rect class="cls-2" x="121.54" y="47.7" width="3.13" height="3.49"/><rect class="cls-2" x="110.68" y="53.08" width="3.13" height="3.49"/><rect class="cls-2" x="116.11" y="53.08" width="3.13" height="3.49"/><rect class="cls-2" x="121.54" y="53.08" width="3.13" height="3.49"/><rect class="cls-2" x="110.68" y="58.45" width="3.13" height="3.49"/><rect class="cls-2" x="116.11" y="58.45" width="3.13" height="3.49"/><rect class="cls-2" x="121.54" y="58.45" width="3.13" height="3.49"/><rect class="cls-2" x="110.68" y="63.83" width="3.13" height="3.49"/><rect class="cls-2" x="116.11" y="63.83" width="3.13" height="3.49"/><rect class="cls-2" x="121.54" y="63.83" width="3.13" height="3.49"/><rect class="cls-2" x="110.68" y="69.2" width="3.13" height="3.49"/><rect class="cls-2" x="116.11" y="69.2" width="3.13" height="3.49"/><rect class="cls-2" x="121.54" y="69.2" width="3.13" height="3.49"/><rect class="cls-2" x="25.94" y="34.08" width="18.03" height="2.61"/><rect class="cls-2" x="25.94" y="39.16" width="18.03" height="2.61"/><rect class="cls-2" x="25.94" y="44.23" width="18.03" height="2.61"/><rect class="cls-2" x="25.94" y="49.3" width="18.03" height="2.61"/><rect class="cls-2" x="25.94" y="54.37" width="18.03" height="2.61"/><rect class="cls-2" x="25.94" y="59.44" width="18.03" height="2.61"/><rect class="cls-2" x="25.94" y="64.51" width="18.03" height="2.61"/><rect class="cls-2" x="25.94" y="69.58" width="18.03" height="2.61"/><rect class="cls-2" x="157.18" y="29.64" width="16.57" height="2.61"/><rect class="cls-2" x="157.18" y="34.71" width="16.57" height="2.61"/><rect class="cls-2" x="157.18" y="39.78" width="16.57" height="2.61"/><rect class="cls-2" x="157.18" y="44.85" width="16.57" height="2.61"/><rect class="cls-2" x="157.18" y="49.92" width="16.57" height="2.61"/><rect class="cls-2" x="157.18" y="54.99" width="16.57" height="2.61"/><rect class="cls-2" x="157.18" y="60.06" width="16.57" height="2.61"/><rect class="cls-2" x="157.18" y="65.14" width="16.57" height="2.61"/><rect class="cls-2" x="157.18" y="69.95" width="16.57" height="2.61"/><rect class="cls-2" x="157.18" y="74.77" width="16.57" height="2.61"/><rect class="cls-2" x="157.18" y="79.59" width="16.57" height="2.61"/><rect class="cls-2" x="157.18" y="84.41" width="16.57" height="2.61"/><rect class="cls-2" x="183.04" y="35.76" width="17.51" height="2.61"/><rect class="cls-2" x="183.04" y="40.83" width="17.51" height="2.61"/><rect class="cls-2" x="183.04" y="45.91" width="17.51" height="2.61"/><rect class="cls-2" x="183.04" y="50.98" width="17.51" height="2.61"/><rect class="cls-2" x="183.04" y="56.05" width="17.51" height="2.61"/><rect class="cls-2" x="183.04" y="61.12" width="17.51" height="2.61"/><rect class="cls-2" x="183.04" y="66.19" width="17.51" height="2.61"/><rect class="cls-2" x="183.04" y="71.26" width="17.51" height="2.61"/><rect class="cls-2" x="183.04" y="75.8" width="17.51" height="2.61"/><rect class="cls-2" x="183.04" y="80.34" width="17.51" height="2.61"/><rect class="cls-2" x="183.04" y="84.88" width="17.51" height="2.61"/><rect class="cls-2" x="89.48" y="25.83" width="5.57" height="2.52"/><rect class="cls-2" x="89.48" y="30.73" width="5.57" height="2.52"/><rect class="cls-2" x="89.48" y="35.63" width="5.57" height="2.52"/><rect class="cls-2" x="89.48" y="40.52" width="5.57" height="2.52"/><rect class="cls-2" x="89.48" y="45.42" width="5.57" height="2.52"/><rect class="cls-2" x="89.48" y="50.32" width="5.57" height="2.52"/><rect class="cls-2" x="89.48" y="55.21" width="5.57" height="2.52"/><rect class="cls-2" x="89.48" y="60.11" width="5.57" height="2.52"/><rect class="cls-2" x="97.05" y="25.83" width="5.57" height="2.52"/><rect class="cls-2" x="97.05" y="30.73" width="5.57" height="2.52"/><rect class="cls-2" x="97.05" y="35.63" width="5.57" height="2.52"/><rect class="cls-2" x="97.05" y="40.52" width="5.57" height="2.52"/><rect class="cls-2" x="97.05" y="45.42" width="5.57" height="2.52"/><rect class="cls-2" x="97.05" y="50.32" width="5.57" height="2.52"/><rect class="cls-2" x="97.05" y="55.21" width="5.57" height="2.52"/><rect class="cls-2" x="97.05" y="60.11" width="5.57" height="2.52"/><rect class="cls-2" x="53.02" y="7.66" width="5.8" height="3.98"/><rect class="cls-2" x="61.67" y="7.66" width="5.8" height="3.98"/><rect class="cls-2" x="53.02" y="13.51" width="5.8" height="3.98"/><rect class="cls-2" x="61.67" y="13.51" width="5.8" height="3.98"/><rect class="cls-2" x="53.02" y="19.36" width="5.8" height="3.98"/><rect class="cls-2" x="61.67" y="19.36" width="5.8" height="3.98"/><rect class="cls-2" x="53.02" y="25.2" width="5.8" height="3.98"/><rect class="cls-2" x="61.67" y="25.2" width="5.8" height="3.98"/><rect class="cls-2" x="53.02" y="31.05" width="5.8" height="3.98"/><rect class="cls-2" x="61.67" y="31.05" width="5.8" height="3.98"/><rect class="cls-2" x="53.02" y="36.9" width="5.8" height="3.98"/><rect class="cls-2" x="61.67" y="36.9" width="5.8" height="3.98"/><rect class="cls-2" x="53.02" y="42.74" width="5.8" height="3.98"/><rect class="cls-2" x="61.67" y="42.74" width="5.8" height="3.98"/><rect class="cls-2" x="53.02" y="48.59" width="5.8" height="3.98"/><rect class="cls-2" x="61.67" y="48.59" width="5.8" height="3.98"/><rect class="cls-2" x="72.39" y="19.36" width="5.8" height="3.98"/><rect class="cls-2" x="72.39" y="25.2" width="5.8" height="3.98"/><rect class="cls-2" x="72.39" y="31.05" width="5.8" height="3.98"/><rect class="cls-2" x="72.39" y="36.9" width="5.8" height="3.98"/><rect class="cls-2" x="72.39" y="42.74" width="5.8" height="3.98"/><rect class="cls-2" x="72.39" y="48.59" width="5.8" height="3.98"/><rect class="cls-2" x="53.02" y="54.37" width="5.8" height="3.98"/><rect class="cls-2" x="61.67" y="54.37" width="5.8" height="3.98"/><rect class="cls-2" x="72.39" y="54.37" width="5.8" height="3.98"/><rect class="cls-2" x="53.02" y="60.15" width="5.8" height="3.98"/><rect class="cls-2" x="61.67" y="60.15" width="5.8" height="3.98"/><rect class="cls-2" x="72.39" y="60.15" width="5.8" height="3.98"/><rect class="cls-2" x="53.02" y="65.92" width="5.8" height="3.98"/><rect class="cls-2" x="61.67" y="65.92" width="5.8" height="3.98"/><rect class="cls-2" x="72.39" y="65.92" width="5.8" height="3.98"/><rect class="cls-2" x="53.02" y="71.7" width="5.8" height="3.98"/><rect class="cls-2" x="61.67" y="71.7" width="5.8" height="3.98"/><rect class="cls-2" x="72.39" y="71.7" width="5.8" height="3.98"/><rect class="cls-2" x="53.02" y="77.48" width="5.8" height="3.98"/><rect class="cls-2" x="61.67" y="77.48" width="5.8" height="3.98"/><rect class="cls-2" x="72.39" y="77.48" width="5.8" height="3.98"/><rect class="cls-2" x="127.44" y="13.34" width="3.13" height="3.49"/><rect class="cls-2" x="132.87" y="13.34" width="3.13" height="3.49"/><rect class="cls-2" x="127.44" y="18.59" width="3.13" height="3.49"/><rect class="cls-2" x="132.87" y="18.59" width="3.13" height="3.49"/><rect class="cls-2" x="127.44" y="23.83" width="3.13" height="3.49"/><rect class="cls-2" x="132.87" y="23.83" width="3.13" height="3.49"/><rect class="cls-2" x="127.44" y="29.08" width="3.13" height="3.49"/><rect class="cls-2" x="132.87" y="29.08" width="3.13" height="3.49"/><rect class="cls-2" x="127.44" y="34.46" width="3.13" height="3.49"/><rect class="cls-2" x="132.87" y="34.46" width="3.13" height="3.49"/><rect class="cls-2" x="127.44" y="39.83" width="3.13" height="3.49"/><rect class="cls-2" x="132.87" y="39.83" width="3.13" height="3.49"/><rect class="cls-2" x="127.44" y="45.21" width="3.13" height="3.49"/><rect class="cls-2" x="132.87" y="45.21" width="3.13" height="3.49"/><rect class="cls-2" x="127.44" y="50.58" width="3.13" height="3.49"/><rect class="cls-2" x="132.87" y="50.58" width="3.13" height="3.49"/><rect class="cls-2" x="127.44" y="56.02" width="3.13" height="3.49"/><rect class="cls-2" x="132.87" y="56.02" width="3.13" height="3.49"/><rect class="cls-2" x="127.44" y="61.45" width="3.13" height="3.49"/><rect class="cls-2" x="132.87" y="61.45" width="3.13" height="3.49"/><rect class="cls-2" x="127.44" y="66.88" width="3.13" height="3.49"/><rect class="cls-2" x="132.87" y="66.88" width="3.13" height="3.49"/><rect class="cls-2" x="127.44" y="72.31" width="3.13" height="3.49"/><rect class="cls-2" x="132.87" y="72.31" width="3.13" height="3.49"/><rect class="cls-2" x="203.9" y="13.91" width="3.13" height="4.11"/><rect class="cls-2" x="209.33" y="13.91" width="3.13" height="4.11"/><rect class="cls-2" x="203.9" y="20.09" width="3.13" height="4.11"/><rect class="cls-2" x="209.33" y="20.09" width="3.13" height="4.11"/><rect class="cls-2" x="203.9" y="26.27" width="3.13" height="4.11"/><rect class="cls-2" x="209.33" y="26.27" width="3.13" height="4.11"/><rect class="cls-2" x="203.9" y="32.45" width="3.13" height="4.11"/><rect class="cls-2" x="209.33" y="32.45" width="3.13" height="4.11"/><rect class="cls-2" x="203.9" y="38.78" width="3.13" height="4.11"/><rect class="cls-2" x="209.33" y="38.78" width="3.13" height="4.11"/><rect class="cls-2" x="203.9" y="45.12" width="3.13" height="4.11"/><rect class="cls-2" x="209.33" y="45.12" width="3.13" height="4.11"/><rect class="cls-2" x="203.9" y="51.45" width="3.13" height="4.11"/><rect class="cls-2" x="209.33" y="51.45" width="3.13" height="4.11"/><rect class="cls-2" x="203.9" y="57.78" width="3.13" height="4.11"/><rect class="cls-2" x="209.33" y="57.78" width="3.13" height="4.11"/><rect class="cls-2" x="203.9" y="64.18" width="3.13" height="4.11"/><rect class="cls-2" x="209.33" y="64.18" width="3.13" height="4.11"/><rect class="cls-2" x="203.9" y="70.58" width="3.13" height="4.11"/><rect class="cls-2" x="209.33" y="70.58" width="3.13" height="4.11"/><rect class="cls-2" x="203.9" y="76.98" width="3.13" height="4.11"/><rect class="cls-2" x="209.33" y="76.98" width="3.13" height="4.11"/><rect class="cls-2" x="203.9" y="83.38" width="3.13" height="4.11"/><rect class="cls-2" x="209.33" y="83.38" width="3.13" height="4.11"/><rect class="cls-2" x="139.05" y="13.34" width="3.13" height="3.49"/><rect class="cls-2" x="144.47" y="13.34" width="3.13" height="3.49"/><rect class="cls-2" x="139.05" y="7.97" width="3.13" height="3.49"/><rect class="cls-2" x="144.47" y="7.97" width="3.13" height="3.49"/><rect class="cls-2" x="139.05" y="2.59" width="3.13" height="3.49"/><rect class="cls-2" x="144.47" y="2.59" width="3.13" height="3.49"/><rect class="cls-2" x="139.05" y="18.59" width="3.13" height="3.49"/><rect class="cls-2" x="144.47" y="18.59" width="3.13" height="3.49"/><rect class="cls-2" x="139.05" y="23.83" width="3.13" height="3.49"/><rect class="cls-2" x="144.47" y="23.83" width="3.13" height="3.49"/><rect class="cls-2" x="139.05" y="29.08" width="3.13" height="3.49"/><rect class="cls-2" x="144.47" y="29.08" width="3.13" height="3.49"/><rect class="cls-2" x="139.05" y="34.46" width="3.13" height="3.49"/><rect class="cls-2" x="144.47" y="34.46" width="3.13" height="3.49"/><rect class="cls-2" x="139.05" y="39.83" width="3.13" height="3.49"/><rect class="cls-2" x="144.47" y="39.83" width="3.13" height="3.49"/><rect class="cls-2" x="139.05" y="45.21" width="3.13" height="3.49"/><rect class="cls-2" x="144.47" y="45.21" width="3.13" height="3.49"/><rect class="cls-2" x="139.05" y="50.58" width="3.13" height="3.49"/><rect class="cls-2" x="144.47" y="50.58" width="3.13" height="3.49"/><rect class="cls-2" x="139.05" y="56.02" width="3.13" height="3.49"/><rect class="cls-2" x="144.47" y="56.02" width="3.13" height="3.49"/><rect class="cls-2" x="139.05" y="61.45" width="3.13" height="3.49"/><rect class="cls-2" x="144.47" y="61.45" width="3.13" height="3.49"/><rect class="cls-2" x="139.05" y="66.88" width="3.13" height="3.49"/><rect class="cls-2" x="144.47" y="66.88" width="3.13" height="3.49"/><rect class="cls-2" x="139.05" y="72.31" width="3.13" height="3.49"/><rect class="cls-2" x="144.47" y="72.31" width="3.13" height="3.49"/><polygon class="cls-1" points="212.66 21.5 231.17 21.5 231.17 43.36 235.94 43.36 235.94 30.99 259.47 30.99 259.47 50.58 262.59 50.58 262.59 4.6 283.04 4.6 283.04 17.22 293.53 17.22 293.53 32.92 296.7 32.92 296.7 23.05 315.29 23.05 315.29 52.52 320.74 52.52 320.74 28.56 337.74 28.56 337.74 10.36 349.31 10.36 349.31 0 362.68 0 362.68 45.97 367.18 45.97 367.18 26.79 389.21 26.79 389.21 54.24 392.26 54.24 392.26 31.83 414.61 31.83 414.61 11.64 426.01 11.64 426.01 89.21 212.66 89.21 212.66 21.5"/><rect class="cls-2" x="214.93" y="24.25" width="3.13" height="4.18"/><rect class="cls-2" x="220.36" y="24.25" width="3.13" height="4.18"/><rect class="cls-2" x="225.79" y="24.25" width="3.13" height="4.18"/><rect class="cls-2" x="214.93" y="30.54" width="3.13" height="4.18"/><rect class="cls-2" x="220.36" y="30.54" width="3.13" height="4.18"/><rect class="cls-2" x="225.79" y="30.54" width="3.13" height="4.18"/><rect class="cls-2" x="214.93" y="36.83" width="3.13" height="4.18"/><rect class="cls-2" x="220.36" y="36.83" width="3.13" height="4.18"/><rect class="cls-2" x="225.79" y="36.83" width="3.13" height="4.18"/><rect class="cls-2" x="214.93" y="43.12" width="3.13" height="4.18"/><rect class="cls-2" x="220.36" y="43.12" width="3.13" height="4.18"/><rect class="cls-2" x="225.79" y="43.12" width="3.13" height="4.18"/><rect class="cls-2" x="323.35" y="31.55" width="3.13" height="3.49"/><rect class="cls-2" x="328.78" y="31.55" width="3.13" height="3.49"/><rect class="cls-2" x="334.2" y="31.55" width="3.13" height="3.49"/><rect class="cls-2" x="323.35" y="36.79" width="3.13" height="3.49"/><rect class="cls-2" x="328.78" y="36.79" width="3.13" height="3.49"/><rect class="cls-2" x="334.2" y="36.79" width="3.13" height="3.49"/><rect class="cls-2" x="323.35" y="42.04" width="3.13" height="3.49"/><rect class="cls-2" x="328.78" y="42.04" width="3.13" height="3.49"/><rect class="cls-2" x="334.2" y="42.04" width="3.13" height="3.49"/><rect class="cls-2" x="323.35" y="47.28" width="3.13" height="3.49"/><rect class="cls-2" x="328.78" y="47.28" width="3.13" height="3.49"/><rect class="cls-2" x="334.2" y="47.28" width="3.13" height="3.49"/><rect class="cls-2" x="323.35" y="52.66" width="3.13" height="3.49"/><rect class="cls-2" x="328.78" y="52.66" width="3.13" height="3.49"/><rect class="cls-2" x="334.2" y="52.66" width="3.13" height="3.49"/><rect class="cls-2" x="323.35" y="58.04" width="3.13" height="3.49"/><rect class="cls-2" x="328.78" y="58.04" width="3.13" height="3.49"/><rect class="cls-2" x="334.2" y="58.04" width="3.13" height="3.49"/><rect class="cls-2" x="323.35" y="63.41" width="3.13" height="3.49"/><rect class="cls-2" x="328.78" y="63.41" width="3.13" height="3.49"/><rect class="cls-2" x="334.2" y="63.41" width="3.13" height="3.49"/><rect class="cls-2" x="323.35" y="68.79" width="3.13" height="3.49"/><rect class="cls-2" x="328.78" y="68.79" width="3.13" height="3.49"/><rect class="cls-2" x="334.2" y="68.79" width="3.13" height="3.49"/><rect class="cls-2" x="238.61" y="33.67" width="18.03" height="2.61"/><rect class="cls-2" x="238.61" y="38.74" width="18.03" height="2.61"/><rect class="cls-2" x="238.61" y="43.81" width="18.03" height="2.61"/><rect class="cls-2" x="238.61" y="48.88" width="18.03" height="2.61"/><rect class="cls-2" x="238.61" y="53.95" width="18.03" height="2.61"/><rect class="cls-2" x="238.61" y="59.02" width="18.03" height="2.61"/><rect class="cls-2" x="238.61" y="64.09" width="18.03" height="2.61"/><rect class="cls-2" x="238.61" y="69.17" width="18.03" height="2.61"/><rect class="cls-2" x="369.84" y="29.22" width="16.57" height="2.61"/><rect class="cls-2" x="369.84" y="34.29" width="16.57" height="2.61"/><rect class="cls-2" x="369.84" y="39.36" width="16.57" height="2.61"/><rect class="cls-2" x="369.84" y="44.44" width="16.57" height="2.61"/><rect class="cls-2" x="369.84" y="49.51" width="16.57" height="2.61"/><rect class="cls-2" x="369.84" y="54.58" width="16.57" height="2.61"/><rect class="cls-2" x="369.84" y="59.65" width="16.57" height="2.61"/><rect class="cls-2" x="369.84" y="64.72" width="16.57" height="2.61"/><rect class="cls-2" x="369.84" y="69.54" width="16.57" height="2.61"/><rect class="cls-2" x="369.84" y="74.36" width="16.57" height="2.61"/><rect class="cls-2" x="369.84" y="79.17" width="16.57" height="2.61"/><rect class="cls-2" x="369.84" y="83.99" width="16.57" height="2.61"/><rect class="cls-2" x="395.71" y="35.35" width="17.51" height="2.61"/><rect class="cls-2" x="395.71" y="40.42" width="17.51" height="2.61"/><rect class="cls-2" x="395.71" y="45.49" width="17.51" height="2.61"/><rect class="cls-2" x="395.71" y="50.56" width="17.51" height="2.61"/><rect class="cls-2" x="395.71" y="55.63" width="17.51" height="2.61"/><rect class="cls-2" x="395.71" y="60.7" width="17.51" height="2.61"/><rect class="cls-2" x="395.71" y="65.77" width="17.51" height="2.61"/><rect class="cls-2" x="395.71" y="70.84" width="17.51" height="2.61"/><rect class="cls-2" x="395.71" y="75.38" width="17.51" height="2.61"/><rect class="cls-2" x="395.71" y="79.92" width="17.51" height="2.61"/><rect class="cls-2" x="395.71" y="84.46" width="17.51" height="2.61"/><rect class="cls-2" x="302.14" y="25.42" width="5.57" height="2.52"/><rect class="cls-2" x="302.14" y="30.31" width="5.57" height="2.52"/><rect class="cls-2" x="302.14" y="35.21" width="5.57" height="2.52"/><rect class="cls-2" x="302.14" y="40.11" width="5.57" height="2.52"/><rect class="cls-2" x="302.14" y="45" width="5.57" height="2.52"/><rect class="cls-2" x="302.14" y="49.9" width="5.57" height="2.52"/><rect class="cls-2" x="302.14" y="54.8" width="5.57" height="2.52"/><rect class="cls-2" x="302.14" y="59.7" width="5.57" height="2.52"/><rect class="cls-2" x="309.72" y="25.42" width="5.57" height="2.52"/><rect class="cls-2" x="309.72" y="30.31" width="5.57" height="2.52"/><rect class="cls-2" x="309.72" y="35.21" width="5.57" height="2.52"/><rect class="cls-2" x="309.72" y="40.11" width="5.57" height="2.52"/><rect class="cls-2" x="309.72" y="45" width="5.57" height="2.52"/><rect class="cls-2" x="309.72" y="49.9" width="5.57" height="2.52"/><rect class="cls-2" x="309.72" y="54.8" width="5.57" height="2.52"/><rect class="cls-2" x="309.72" y="59.7" width="5.57" height="2.52"/><rect class="cls-2" x="265.69" y="7.25" width="5.8" height="3.98"/><rect class="cls-2" x="274.33" y="7.25" width="5.8" height="3.98"/><rect class="cls-2" x="265.69" y="13.09" width="5.8" height="3.98"/><rect class="cls-2" x="274.33" y="13.09" width="5.8" height="3.98"/><rect class="cls-2" x="265.69" y="18.94" width="5.8" height="3.98"/><rect class="cls-2" x="274.33" y="18.94" width="5.8" height="3.98"/><rect class="cls-2" x="265.69" y="24.79" width="5.8" height="3.98"/><rect class="cls-2" x="274.33" y="24.79" width="5.8" height="3.98"/><rect class="cls-2" x="265.69" y="30.63" width="5.8" height="3.98"/><rect class="cls-2" x="274.33" y="30.63" width="5.8" height="3.98"/><rect class="cls-2" x="265.69" y="36.48" width="5.8" height="3.98"/><rect class="cls-2" x="274.33" y="36.48" width="5.8" height="3.98"/><rect class="cls-2" x="265.69" y="42.33" width="5.8" height="3.98"/><rect class="cls-2" x="274.33" y="42.33" width="5.8" height="3.98"/><rect class="cls-2" x="265.69" y="48.18" width="5.8" height="3.98"/><rect class="cls-2" x="274.33" y="48.18" width="5.8" height="3.98"/><rect class="cls-2" x="285.05" y="18.94" width="5.8" height="3.98"/><rect class="cls-2" x="285.05" y="24.79" width="5.8" height="3.98"/><rect class="cls-2" x="285.05" y="30.63" width="5.8" height="3.98"/><rect class="cls-2" x="285.05" y="36.48" width="5.8" height="3.98"/><rect class="cls-2" x="285.05" y="42.33" width="5.8" height="3.98"/><rect class="cls-2" x="285.05" y="48.18" width="5.8" height="3.98"/><rect class="cls-2" x="265.69" y="53.95" width="5.8" height="3.98"/><rect class="cls-2" x="274.33" y="53.95" width="5.8" height="3.98"/><rect class="cls-2" x="285.05" y="53.95" width="5.8" height="3.98"/><rect class="cls-2" x="265.69" y="59.73" width="5.8" height="3.98"/><rect class="cls-2" x="274.33" y="59.73" width="5.8" height="3.98"/><rect class="cls-2" x="285.05" y="59.73" width="5.8" height="3.98"/><rect class="cls-2" x="265.69" y="65.51" width="5.8" height="3.98"/><rect class="cls-2" x="274.33" y="65.51" width="5.8" height="3.98"/><rect class="cls-2" x="285.05" y="65.51" width="5.8" height="3.98"/><rect class="cls-2" x="265.69" y="71.28" width="5.8" height="3.98"/><rect class="cls-2" x="274.33" y="71.28" width="5.8" height="3.98"/><rect class="cls-2" x="285.05" y="71.28" width="5.8" height="3.98"/><rect class="cls-2" x="265.69" y="77.06" width="5.8" height="3.98"/><rect class="cls-2" x="274.33" y="77.06" width="5.8" height="3.98"/><rect class="cls-2" x="285.05" y="77.06" width="5.8" height="3.98"/><rect class="cls-2" x="340.1" y="12.93" width="3.13" height="3.49"/><rect class="cls-2" x="345.53" y="12.93" width="3.13" height="3.49"/><rect class="cls-2" x="340.1" y="18.17" width="3.13" height="3.49"/><rect class="cls-2" x="345.53" y="18.17" width="3.13" height="3.49"/><rect class="cls-2" x="340.1" y="23.42" width="3.13" height="3.49"/><rect class="cls-2" x="345.53" y="23.42" width="3.13" height="3.49"/><rect class="cls-2" x="340.1" y="28.66" width="3.13" height="3.49"/><rect class="cls-2" x="345.53" y="28.66" width="3.13" height="3.49"/><rect class="cls-2" x="340.1" y="34.04" width="3.13" height="3.49"/><rect class="cls-2" x="345.53" y="34.04" width="3.13" height="3.49"/><rect class="cls-2" x="340.1" y="39.42" width="3.13" height="3.49"/><rect class="cls-2" x="345.53" y="39.42" width="3.13" height="3.49"/><rect class="cls-2" x="340.1" y="44.79" width="3.13" height="3.49"/><rect class="cls-2" x="345.53" y="44.79" width="3.13" height="3.49"/><rect class="cls-2" x="340.1" y="50.17" width="3.13" height="3.49"/><rect class="cls-2" x="345.53" y="50.17" width="3.13" height="3.49"/><rect class="cls-2" x="340.1" y="55.6" width="3.13" height="3.49"/><rect class="cls-2" x="345.53" y="55.6" width="3.13" height="3.49"/><rect class="cls-2" x="340.1" y="61.03" width="3.13" height="3.49"/><rect class="cls-2" x="345.53" y="61.03" width="3.13" height="3.49"/><rect class="cls-2" x="340.1" y="66.46" width="3.13" height="3.49"/><rect class="cls-2" x="345.53" y="66.46" width="3.13" height="3.49"/><rect class="cls-2" x="340.1" y="71.9" width="3.13" height="3.49"/><rect class="cls-2" x="345.53" y="71.9" width="3.13" height="3.49"/><rect class="cls-2" x="416.57" y="13.49" width="3.13" height="4.11"/><rect class="cls-2" x="422" y="13.49" width="3.13" height="4.11"/><rect class="cls-2" x="416.57" y="19.67" width="3.13" height="4.11"/><rect class="cls-2" x="422" y="19.67" width="3.13" height="4.11"/><rect class="cls-2" x="416.57" y="25.85" width="3.13" height="4.11"/><rect class="cls-2" x="422" y="25.85" width="3.13" height="4.11"/><rect class="cls-2" x="416.57" y="32.03" width="3.13" height="4.11"/><rect class="cls-2" x="422" y="32.03" width="3.13" height="4.11"/><rect class="cls-2" x="416.57" y="38.37" width="3.13" height="4.11"/><rect class="cls-2" x="422" y="38.37" width="3.13" height="4.11"/><rect class="cls-2" x="416.57" y="44.7" width="3.13" height="4.11"/><rect class="cls-2" x="422" y="44.7" width="3.13" height="4.11"/><rect class="cls-2" x="416.57" y="51.03" width="3.13" height="4.11"/><rect class="cls-2" x="422" y="51.03" width="3.13" height="4.11"/><rect class="cls-2" x="416.57" y="57.37" width="3.13" height="4.11"/><rect class="cls-2" x="422" y="57.37" width="3.13" height="4.11"/><rect class="cls-2" x="416.57" y="63.77" width="3.13" height="4.11"/><rect class="cls-2" x="422" y="63.77" width="3.13" height="4.11"/><rect class="cls-2" x="416.57" y="70.17" width="3.13" height="4.11"/><rect class="cls-2" x="422" y="70.17" width="3.13" height="4.11"/><rect class="cls-2" x="416.57" y="76.57" width="3.13" height="4.11"/><rect class="cls-2" x="422" y="76.57" width="3.13" height="4.11"/><rect class="cls-2" x="416.57" y="82.97" width="3.13" height="4.11"/><rect class="cls-2" x="422" y="82.97" width="3.13" height="4.11"/><rect class="cls-2" x="351.71" y="12.93" width="3.13" height="3.49"/><rect class="cls-2" x="357.14" y="12.93" width="3.13" height="3.49"/><rect class="cls-2" x="351.71" y="7.55" width="3.13" height="3.49"/><rect class="cls-2" x="357.14" y="7.55" width="3.13" height="3.49"/><rect class="cls-2" x="351.71" y="2.17" width="3.13" height="3.49"/><rect class="cls-2" x="357.14" y="2.17" width="3.13" height="3.49"/><rect class="cls-2" x="351.71" y="18.17" width="3.13" height="3.49"/><rect class="cls-2" x="357.14" y="18.17" width="3.13" height="3.49"/><rect class="cls-2" x="351.71" y="23.42" width="3.13" height="3.49"/><rect class="cls-2" x="357.14" y="23.42" width="3.13" height="3.49"/><rect class="cls-2" x="351.71" y="28.66" width="3.13" height="3.49"/><rect class="cls-2" x="357.14" y="28.66" width="3.13" height="3.49"/><rect class="cls-2" x="351.71" y="34.04" width="3.13" height="3.49"/><rect class="cls-2" x="357.14" y="34.04" width="3.13" height="3.49"/><rect class="cls-2" x="351.71" y="39.42" width="3.13" height="3.49"/><rect class="cls-2" x="357.14" y="39.42" width="3.13" height="3.49"/><rect class="cls-2" x="351.71" y="44.79" width="3.13" height="3.49"/><rect class="cls-2" x="357.14" y="44.79" width="3.13" height="3.49"/><rect class="cls-2" x="351.71" y="50.17" width="3.13" height="3.49"/><rect class="cls-2" x="357.14" y="50.17" width="3.13" height="3.49"/><rect class="cls-2" x="351.71" y="55.6" width="3.13" height="3.49"/><rect class="cls-2" x="357.14" y="55.6" width="3.13" height="3.49"/><rect class="cls-2" x="351.71" y="61.03" width="3.13" height="3.49"/><rect class="cls-2" x="357.14" y="61.03" width="3.13" height="3.49"/><rect class="cls-2" x="351.71" y="66.46" width="3.13" height="3.49"/><rect class="cls-2" x="357.14" y="66.46" width="3.13" height="3.49"/><rect class="cls-2" x="351.71" y="71.9" width="3.13" height="3.49"/><rect class="cls-2" x="357.14" y="71.9" width="3.13" height="3.49"/><polygon class="cls-1" points="575.97 0.1 575.97 89.31 426.01 89.31 426.01 21.59 444.52 21.59 444.52 43.45 449.28 43.45 449.28 31.09 472.81 31.09 472.81 50.67 475.93 50.67 475.93 4.7 496.38 4.7 496.38 17.32 506.87 17.32 506.87 33.02 510.05 33.02 510.05 23.14 528.64 23.14 528.64 52.62 534.08 52.62 534.08 28.66 551.09 28.66 551.09 10.46 562.65 10.46 562.65 0.1 575.97 0.1"/><rect class="cls-2" x="428.28" y="24.35" width="3.13" height="4.18"/><rect class="cls-2" x="433.71" y="24.35" width="3.13" height="4.18"/><rect class="cls-2" x="439.14" y="24.35" width="3.13" height="4.18"/><rect class="cls-2" x="428.28" y="30.64" width="3.13" height="4.18"/><rect class="cls-2" x="433.71" y="30.64" width="3.13" height="4.18"/><rect class="cls-2" x="439.14" y="30.64" width="3.13" height="4.18"/><rect class="cls-2" x="428.28" y="36.92" width="3.13" height="4.18"/><rect class="cls-2" x="433.71" y="36.92" width="3.13" height="4.18"/><rect class="cls-2" x="439.14" y="36.92" width="3.13" height="4.18"/><rect class="cls-2" x="428.28" y="43.21" width="3.13" height="4.18"/><rect class="cls-2" x="433.71" y="43.21" width="3.13" height="4.18"/><rect class="cls-2" x="439.14" y="43.21" width="3.13" height="4.18"/><rect class="cls-2" x="536.69" y="31.64" width="3.13" height="3.49"/><rect class="cls-2" x="542.12" y="31.64" width="3.13" height="3.49"/><rect class="cls-2" x="547.55" y="31.64" width="3.13" height="3.49"/><rect class="cls-2" x="536.69" y="36.89" width="3.13" height="3.49"/><rect class="cls-2" x="542.12" y="36.89" width="3.13" height="3.49"/><rect class="cls-2" x="547.55" y="36.89" width="3.13" height="3.49"/><rect class="cls-2" x="536.69" y="42.13" width="3.13" height="3.49"/><rect class="cls-2" x="542.12" y="42.13" width="3.13" height="3.49"/><rect class="cls-2" x="547.55" y="42.13" width="3.13" height="3.49"/><rect class="cls-2" x="536.69" y="47.38" width="3.13" height="3.49"/><rect class="cls-2" x="542.12" y="47.38" width="3.13" height="3.49"/><rect class="cls-2" x="547.55" y="47.38" width="3.13" height="3.49"/><rect class="cls-2" x="536.69" y="52.75" width="3.13" height="3.49"/><rect class="cls-2" x="542.12" y="52.75" width="3.13" height="3.49"/><rect class="cls-2" x="547.55" y="52.75" width="3.13" height="3.49"/><rect class="cls-2" x="536.69" y="58.13" width="3.13" height="3.49"/><rect class="cls-2" x="542.12" y="58.13" width="3.13" height="3.49"/><rect class="cls-2" x="547.55" y="58.13" width="3.13" height="3.49"/><rect class="cls-2" x="536.69" y="63.51" width="3.13" height="3.49"/><rect class="cls-2" x="542.12" y="63.51" width="3.13" height="3.49"/><rect class="cls-2" x="547.55" y="63.51" width="3.13" height="3.49"/><rect class="cls-2" x="536.69" y="68.88" width="3.13" height="3.49"/><rect class="cls-2" x="542.12" y="68.88" width="3.13" height="3.49"/><rect class="cls-2" x="547.55" y="68.88" width="3.13" height="3.49"/><rect class="cls-2" x="451.96" y="33.76" width="18.03" height="2.61"/><rect class="cls-2" x="451.96" y="38.83" width="18.03" height="2.61"/><rect class="cls-2" x="451.96" y="43.91" width="18.03" height="2.61"/><rect class="cls-2" x="451.96" y="48.98" width="18.03" height="2.61"/><rect class="cls-2" x="451.96" y="54.05" width="18.03" height="2.61"/><rect class="cls-2" x="451.96" y="59.12" width="18.03" height="2.61"/><rect class="cls-2" x="451.96" y="64.19" width="18.03" height="2.61"/><rect class="cls-2" x="451.96" y="69.26" width="18.03" height="2.61"/><rect class="cls-2" x="515.49" y="25.51" width="5.57" height="2.52"/><rect class="cls-2" x="515.49" y="30.41" width="5.57" height="2.52"/><rect class="cls-2" x="515.49" y="35.3" width="5.57" height="2.52"/><rect class="cls-2" x="515.49" y="40.2" width="5.57" height="2.52"/><rect class="cls-2" x="515.49" y="45.1" width="5.57" height="2.52"/><rect class="cls-2" x="515.49" y="50" width="5.57" height="2.52"/><rect class="cls-2" x="515.49" y="54.89" width="5.57" height="2.52"/><rect class="cls-2" x="515.49" y="59.79" width="5.57" height="2.52"/><rect class="cls-2" x="523.06" y="25.51" width="5.57" height="2.52"/><rect class="cls-2" x="523.06" y="30.41" width="5.57" height="2.52"/><rect class="cls-2" x="523.06" y="35.3" width="5.57" height="2.52"/><rect class="cls-2" x="523.06" y="40.2" width="5.57" height="2.52"/><rect class="cls-2" x="523.06" y="45.1" width="5.57" height="2.52"/><rect class="cls-2" x="523.06" y="50" width="5.57" height="2.52"/><rect class="cls-2" x="523.06" y="54.89" width="5.57" height="2.52"/><rect class="cls-2" x="523.06" y="59.79" width="5.57" height="2.52"/><rect class="cls-2" x="479.03" y="7.34" width="5.8" height="3.98"/><rect class="cls-2" x="487.68" y="7.34" width="5.8" height="3.98"/><rect class="cls-2" x="479.03" y="13.19" width="5.8" height="3.98"/><rect class="cls-2" x="487.68" y="13.19" width="5.8" height="3.98"/><rect class="cls-2" x="479.03" y="19.04" width="5.8" height="3.98"/><rect class="cls-2" x="487.68" y="19.04" width="5.8" height="3.98"/><rect class="cls-2" x="479.03" y="24.88" width="5.8" height="3.98"/><rect class="cls-2" x="487.68" y="24.88" width="5.8" height="3.98"/><rect class="cls-2" x="479.03" y="30.73" width="5.8" height="3.98"/><rect class="cls-2" x="487.68" y="30.73" width="5.8" height="3.98"/><rect class="cls-2" x="479.03" y="36.58" width="5.8" height="3.98"/><rect class="cls-2" x="487.68" y="36.58" width="5.8" height="3.98"/><rect class="cls-2" x="479.03" y="42.42" width="5.8" height="3.98"/><rect class="cls-2" x="487.68" y="42.42" width="5.8" height="3.98"/><rect class="cls-2" x="479.03" y="48.27" width="5.8" height="3.98"/><rect class="cls-2" x="487.68" y="48.27" width="5.8" height="3.98"/><rect class="cls-2" x="498.4" y="19.04" width="5.8" height="3.98"/><rect class="cls-2" x="498.4" y="24.88" width="5.8" height="3.98"/><rect class="cls-2" x="498.4" y="30.73" width="5.8" height="3.98"/><rect class="cls-2" x="498.4" y="36.58" width="5.8" height="3.98"/><rect class="cls-2" x="498.4" y="42.42" width="5.8" height="3.98"/><rect class="cls-2" x="498.4" y="48.27" width="5.8" height="3.98"/><rect class="cls-2" x="479.03" y="54.05" width="5.8" height="3.98"/><rect class="cls-2" x="487.68" y="54.05" width="5.8" height="3.98"/><rect class="cls-2" x="498.4" y="54.05" width="5.8" height="3.98"/><rect class="cls-2" x="479.03" y="59.82" width="5.8" height="3.98"/><rect class="cls-2" x="487.68" y="59.82" width="5.8" height="3.98"/><rect class="cls-2" x="498.4" y="59.82" width="5.8" height="3.98"/><rect class="cls-2" x="479.03" y="65.6" width="5.8" height="3.98"/><rect class="cls-2" x="487.68" y="65.6" width="5.8" height="3.98"/><rect class="cls-2" x="498.4" y="65.6" width="5.8" height="3.98"/><rect class="cls-2" x="479.03" y="71.38" width="5.8" height="3.98"/><rect class="cls-2" x="487.68" y="71.38" width="5.8" height="3.98"/><rect class="cls-2" x="498.4" y="71.38" width="5.8" height="3.98"/><rect class="cls-2" x="479.03" y="77.16" width="5.8" height="3.98"/><rect class="cls-2" x="487.68" y="77.16" width="5.8" height="3.98"/><rect class="cls-2" x="498.4" y="77.16" width="5.8" height="3.98"/><rect class="cls-2" x="553.45" y="13.02" width="3.13" height="3.49"/><rect class="cls-2" x="558.88" y="13.02" width="3.13" height="3.49"/><rect class="cls-2" x="553.45" y="18.27" width="3.13" height="3.49"/><rect class="cls-2" x="558.88" y="18.27" width="3.13" height="3.49"/><rect class="cls-2" x="553.45" y="23.51" width="3.13" height="3.49"/><rect class="cls-2" x="558.88" y="23.51" width="3.13" height="3.49"/><rect class="cls-2" x="553.45" y="28.76" width="3.13" height="3.49"/><rect class="cls-2" x="558.88" y="28.76" width="3.13" height="3.49"/><rect class="cls-2" x="553.45" y="34.13" width="3.13" height="3.49"/><rect class="cls-2" x="558.88" y="34.13" width="3.13" height="3.49"/><rect class="cls-2" x="553.45" y="39.51" width="3.13" height="3.49"/><rect class="cls-2" x="558.88" y="39.51" width="3.13" height="3.49"/><rect class="cls-2" x="553.45" y="44.89" width="3.13" height="3.49"/><rect class="cls-2" x="558.88" y="44.89" width="3.13" height="3.49"/><rect class="cls-2" x="553.45" y="50.26" width="3.13" height="3.49"/><rect class="cls-2" x="558.88" y="50.26" width="3.13" height="3.49"/><rect class="cls-2" x="553.45" y="55.69" width="3.13" height="3.49"/><rect class="cls-2" x="558.88" y="55.69" width="3.13" height="3.49"/><rect class="cls-2" x="553.45" y="61.13" width="3.13" height="3.49"/><rect class="cls-2" x="558.88" y="61.13" width="3.13" height="3.49"/><rect class="cls-2" x="553.45" y="66.56" width="3.13" height="3.49"/><rect class="cls-2" x="558.88" y="66.56" width="3.13" height="3.49"/><rect class="cls-2" x="553.45" y="71.99" width="3.13" height="3.49"/><rect class="cls-2" x="558.88" y="71.99" width="3.13" height="3.49"/><rect class="cls-2" x="565.06" y="13.02" width="3.13" height="3.49"/><rect class="cls-2" x="570.48" y="13.02" width="3.13" height="3.49"/><rect class="cls-2" x="565.06" y="7.64" width="3.13" height="3.49"/><rect class="cls-2" x="570.48" y="7.64" width="3.13" height="3.49"/><rect class="cls-2" x="565.06" y="2.27" width="3.13" height="3.49"/><rect class="cls-2" x="570.48" y="2.27" width="3.13" height="3.49"/><rect class="cls-2" x="565.06" y="18.27" width="3.13" height="3.49"/><rect class="cls-2" x="570.48" y="18.27" width="3.13" height="3.49"/><rect class="cls-2" x="565.06" y="23.51" width="3.13" height="3.49"/><rect class="cls-2" x="570.48" y="23.51" width="3.13" height="3.49"/><rect class="cls-2" x="565.06" y="28.76" width="3.13" height="3.49"/><rect class="cls-2" x="570.48" y="28.76" width="3.13" height="3.49"/><rect class="cls-2" x="565.06" y="34.13" width="3.13" height="3.49"/><rect class="cls-2" x="570.48" y="34.13" width="3.13" height="3.49"/><rect class="cls-2" x="565.06" y="39.51" width="3.13" height="3.49"/><rect class="cls-2" x="570.48" y="39.51" width="3.13" height="3.49"/><rect class="cls-2" x="565.06" y="44.89" width="3.13" height="3.49"/><rect class="cls-2" x="570.48" y="44.89" width="3.13" height="3.49"/><rect class="cls-2" x="565.06" y="50.26" width="3.13" height="3.49"/><rect class="cls-2" x="570.48" y="50.26" width="3.13" height="3.49"/><rect class="cls-2" x="565.06" y="55.69" width="3.13" height="3.49"/><rect class="cls-2" x="570.48" y="55.69" width="3.13" height="3.49"/><rect class="cls-2" x="565.06" y="61.13" width="3.13" height="3.49"/><rect class="cls-2" x="570.48" y="61.13" width="3.13" height="3.49"/><rect class="cls-2" x="565.06" y="66.56" width="3.13" height="3.49"/><rect class="cls-2" x="570.48" y="66.56" width="3.13" height="3.49"/><rect class="cls-2" x="565.06" y="71.99" width="3.13" height="3.49"/><rect class="cls-2" x="570.48" y="71.99" width="3.13" height="3.49"/></svg>