<svg id="Layer_1" data-name="Layer 1" xmlns="http://www.w3.org/2000/svg" xmlns:xlink="http://www.w3.org/1999/xlink" viewBox="0 0 250 50"><defs><style>.cls-1{fill:none;stroke:#ebebeb;stroke-miterlimit:10;}.cls-2{fill:url(#linear-gradient);}.cls-3{fill:#0059c1;}</style><linearGradient id="linear-gradient" x1="8.18" y1="20.65" x2="17.95" y2="29.47" gradientUnits="userSpaceOnUse"><stop offset="0" stop-color="#0059c1"/><stop offset="1" stop-color="#0060ff"/></linearGradient></defs><line class="cls-1" x1="21" y1="25" x2="117" y2="25"/><line class="cls-1" x1="133" y1="25" x2="229" y2="25"/><circle class="cls-2" cx="13" cy="25" r="8"/><path class="cls-3" d="M125,18a7,7,0,1,1-7,7,7,7,0,0,1,7-7m0-1a8,8,0,1,0,8,8,8,8,0,0,0-8-8Z"/><path class="cls-3" d="M237,18a7,7,0,1,1-7,7,7,7,0,0,1,7-7m0-1a8,8,0,1,0,8,8,8,8,0,0,0-8-8Z"/></svg>